<svg width="530" height="488" viewBox="0 0 530 488" fill="none" xmlns="http://www.w3.org/2000/svg">
<path d="M306.401 275.788L305.565 277.931L305.658 278.645L307.145 281.235L309.283 283.824L308.725 284.449L308.168 286.146L308.818 287.932L305.193 288.2L302.869 287.396L301.661 288.646L304.078 289.271L304.542 290.253L304.078 291.504L302.033 292.575L302.405 293.914L301.94 294.539L302.962 295.968L302.683 297.575L300.36 298.022L298.687 299.54L297.478 300.343L297.385 302.04L295.154 301.594L293.667 301.772L291.529 302.754L288.927 302.576L286.51 302.754L284.744 303.379L283.814 304.54L281.026 305.612L276.378 304.987L271.731 304.183L269.314 303.737L265.596 303.469L257.602 302.129L256.58 301.683L253.698 298.558V296.504L249.33 297.843L246.448 297.665L243.288 297.933L241.987 298.468L240.871 300.433L239.849 300.79L237.897 300.433L237.06 299.718L234.272 299.451L233.807 298.111L233.063 297.843L231.204 299.54L229.066 299.183L227.672 298.468L227.3 297.575L224.233 296.861L224.512 296.147L223.489 293.914L224.419 291.236L223.582 290.611L225.162 290.164L225.813 289.718L229.066 291.146L229.903 292.396L231.018 292.664L230.925 293.825L232.413 293.379L233.342 291.95L233.528 290.253L236.131 290.164L238.64 290.521L239.942 292.218L243.474 291.771L244.496 290.968L248.121 289.628L253.419 289.182L253.512 287.932L255.371 288.2L256.766 288.914L259.09 288.468L260.112 288.914L260.298 289.896L261.413 290.7L262.993 291.057L263.272 289.718L262.993 288.021L261.413 287.753L261.971 286.592L261.878 285.432L259.554 282.932L260.112 281.771L262.993 280.163L265.689 279.449L266.619 278.556L267.269 275.967L269.407 276.77L270.615 275.967L270.801 273.467L272.846 274.538L273.59 275.699L277.215 276.056L278.516 275.431L280.84 275.788L280.933 274.806L282.141 273.377H283.257L283.536 270.52L284.651 270.341L286.138 271.056L287.44 270.698L291.901 272.216L293.295 272.127L296.084 273.645L299.616 273.824L300.732 273.02L305.472 274.359L306.401 275.788Z" fill="white" stroke="black" stroke-linecap="round" stroke-linejoin="round"/>
<path d="M178.315 246.232L179.802 245.786L180.546 246.5L181.661 246.59L184.45 248.643L184.078 249.983L185.658 250.608L186.03 252.394L183.892 253.554L183.334 255.072L181.754 254.447L180.546 255.608L179.244 257.84L179.058 259.358L180.917 261.501L179.895 263.019L176.735 263.377L174.132 261.055L171.065 259.716L169.484 259.626L169.113 257.84L168.555 257.305L169.299 254.894L167.533 255.43L167.068 256.68L165.859 257.215L163.814 257.483L161.677 257.215L161.212 256.68L161.862 255.43L161.212 254.804L161.584 253.376L160.096 252.394L156.75 252.036L155.914 252.304L155.356 250.518L151.452 249.536L150.987 247.75L149.5 246.143L146.526 247.036L143.83 244.893V243.822L142.993 241.857L147.734 239.625L152.103 238.107L152.382 239.268L153.497 239.893L154.612 239.357L158.237 240.339L161.212 239L161.77 237.928L163.722 238.196L163.536 237.392L164.837 236.767L166.231 237.482L167.625 236.589L168.648 237.75L170.972 237.035L171.436 238.464L173.853 239.714L175.619 239.357L177.199 240.518L179.616 241.5L178.687 244.089L177.664 245.25L178.315 246.232Z" fill="white" stroke="black" stroke-linecap="round" stroke-linejoin="round"/>
<path d="M447.501 342.49L447.687 345.793L446.85 347.401L444.991 346.865L442.946 347.311L442.017 349.097L440.901 350.169V352.49L441.273 356.241L439.786 356.866L437.09 360.169L439.879 361.777L441.459 363.741L443.69 365.973L444.154 367.045L442.574 366.866L441.738 367.224H440.065L438.67 367.759L435.51 365.527L432.257 365.795L430.862 366.777L427.702 367.134L426.773 369.099L425.007 369.367L424.728 370.617L423.24 370.17L421.753 371.152L422.404 372.045L423.24 374.456L423.055 375.171L420.731 376.242L419.058 375.974L416.083 376.331L412.923 377.135L411.343 376.153L407.904 375.081L407.067 375.617L404.836 374.367L403.721 372.849L402.234 373.295L398.33 373.206L398.144 374.01L396.378 374.188L393.589 375.171L391.172 374.992L388.942 375.171L388.012 376.063L385.224 375.885V372.135L385.688 370.617L384.852 369.724L383.272 366.777L380.111 365.17L377.044 362.312L377.973 362.045L378.996 360.527L377.695 357.937V354.99L378.717 354.455L380.39 354.365L381.413 352.937L382.9 351.419L383.179 350.169L381.691 349.276L380.483 347.847L377.787 346.508L375.557 343.025L374.999 340.882L375.371 338.829L377.323 337.936L377.509 336.239L378.345 335.614L382.342 337.846L380.669 339.632L381.505 341.239L384.945 340.704L388.57 340.972L393.496 341.865L396.749 342.222L399.073 341.775L407.811 343.293L411.715 343.472L413.852 342.936L415.34 342.132L416.455 340.704L419.522 338.829L422.497 337.757L426.587 336.953L429.282 336.596L433.465 338.65L436.439 339.007L437.276 339.543L438.856 339.096L441.18 341.418L443.225 342.043L445.642 342.49H447.501Z" fill="white" stroke="black" stroke-linecap="round" stroke-linejoin="round"/>
<path d="M279.539 245.071L281.491 244.714L281.398 243.018L284.465 243.732L284.744 244.714L285.673 245.696L289.949 246.679L292.459 247.661L293.202 248.465L296.177 247.839L297.85 248.911L297.199 249.893L295.712 250.965L297.199 251.768L299.058 253.376L300.453 255.072L301.382 255.429L304.635 253.197L303.055 251.054H304.264L306.309 251.59L309.376 253.286L312.722 252.661V254.09L311.421 254.536L313.931 256.59L314.86 257.126L316.533 256.233L319.786 257.84L320.251 257.662L322.761 258.376L323.226 259.983L325.828 261.948L326.293 263.376L323.69 263.644L321.831 264.984L321.274 265.698L319.136 266.769L318.485 269.448L316.998 270.163L315.046 271.859L313.652 272.484L312.072 272.663L308.725 272.216L307.424 273.288L306.401 275.788L305.472 274.359L300.732 273.02L299.616 273.824L296.084 273.645L293.295 272.127L291.901 272.216L287.44 270.698L286.138 271.055L284.651 270.341L283.536 270.52L283.257 273.377H282.141L280.933 274.806L280.84 275.788L278.516 275.431L277.215 276.056L273.59 275.699L272.846 274.538L270.801 273.466L270.244 272.841L267.548 270.877H266.34L265.131 269.448L262.808 268.109L260.112 265.787H258.904L256.766 264.001L255.093 261.59L253.791 260.251L254.907 258.733L254.349 257.304L252.211 256.144L249.887 253.108L250.352 252.483L252.118 254.269L253.884 251.947L254.907 251.411L257.323 250.875L259.275 251.233L260.019 250.072L261.878 249.804L262.436 248.911L263.923 248.286L264.945 248.375L265.503 247.304L269.593 246.411L272.846 245.071L274.612 244.536L273.218 243.196L273.962 242.661L276.007 243.018L277.401 244.357V245.161L278.702 245.696L279.539 245.071Z" fill="white" stroke="black" stroke-linecap="round" stroke-linejoin="round"/>
<path d="M269.314 204.622L266.154 204.533L265.968 203.015L264.945 202.122L264.852 201.229L269.221 203.551L269.314 204.622ZM236.967 197.39H235.294L233.993 196.765L234.736 195.872L236.316 196.229L236.967 197.39ZM263.272 197.836L262.064 198.461H260.855L259.647 199.622L257.695 198.64L257.23 197.657L257.323 195.693L257.881 194.443L259.74 193.639L260.576 194.711L262.157 195.247L261.692 196.765L263.272 197.836ZM219.957 191.943L221.63 192.568L223.117 193.996L223.21 195.247L221.63 196.675L224.604 196.407L225.348 197.479L226.928 197.122L231.111 198.729L234.085 197.925L234.736 199.175L234.178 200.515L232.134 201.943L233.435 203.015L235.387 202.836L238.733 203.64L241.8 201.408L242.823 200.961L246.169 200.693L250.91 196.675L255.836 197.479L257.23 199.175L260.669 201.051L263.644 200.872L264.852 202.658L265.596 204.89L267.362 206.051L269.964 206.497L270.615 208.819L272.288 212.48L272.009 214.891L270.243 216.498L269.593 217.927L271.08 219.177L274.147 221.052L275.449 222.57L274.891 224.892L276.75 226.945L277.494 228.642L276.843 230.963L276.099 231.946L277.865 234.714V236.142L279.91 236.946L281.398 239.803L281.026 241.857L279.538 245.072L278.702 245.697L277.401 245.161V244.357L276.006 243.018L273.961 242.661L273.218 243.196L274.612 244.536L272.846 245.072L269.593 246.411L265.503 247.304L264.945 248.375L263.923 248.286L262.435 248.911L261.878 249.804L260.019 250.072L259.275 251.233L257.323 250.876L254.906 251.411L253.884 251.947L252.118 254.269L250.352 252.483L249.887 253.108L252.211 256.144L254.349 257.305L254.906 258.733L253.791 260.251L255.092 261.591L256.766 264.002L258.903 265.787H260.112L262.807 268.109L265.131 269.448L266.339 270.877H267.548L270.243 272.841L270.801 273.466L270.615 275.967L269.407 276.77L267.269 275.967L266.618 278.556L265.689 279.449L262.993 280.163L260.112 281.771L259.554 282.931L261.878 285.432L261.971 286.592L261.413 287.753L262.993 288.021L263.272 289.718L262.993 291.057L261.413 290.7L260.298 289.896L260.112 288.914L259.089 288.468L256.766 288.914L255.371 288.2L253.512 287.932L253.419 289.182L248.121 289.628L244.496 290.968L243.473 291.771L239.941 292.218L238.64 290.521L236.13 290.164L233.528 290.253L233.342 291.95L232.412 293.379L230.925 293.825L231.018 292.664L229.903 292.396L229.066 291.146L225.813 289.718L225.162 290.164L223.117 289.093L218.377 287.039L219.306 288.468L215.867 288.646L214.845 287.843L214.101 288.021L212.8 287.128H211.591L210.383 288.2L210.569 289.539L208.152 289.361L205.085 289.896L202.482 289.807L201.553 289.539L200.53 288.378V287.039L201.088 285.253L200.902 283.11L201.181 281.771L202.11 280.163L203.412 275.252L206.665 271.859L206.572 270.698L205.085 270.163L200.623 269.448L198.764 268.198L195.976 268.734L194.024 268.645L193.745 267.841L192.443 267.484L190.77 268.109L187.517 264.269L186.216 264.18L186.773 261.501L187.61 260.698V259.448L185.007 258.465L183.613 257.037L183.334 255.072L183.892 253.554L186.03 252.394L185.658 250.608L184.078 249.983L184.45 248.643L181.661 246.59L182.219 244.447L180.453 243.375L180.918 242.661L182.962 241.232L182.312 240.161L183.52 237.66V236.589L180.639 232.928L181.289 231.946L182.962 231.321L185.1 232.035L189.283 230.874L189.934 229.981L189.004 229.178L189.283 228.374L191.7 226.945L192.258 224.624L191.514 223.731L189.097 223.463L188.447 222.57L189.004 221.141L191.886 221.231L192.908 217.837L193.559 216.319L193.466 212.48L191.886 211.23L192.35 208.819L193.373 207.569L194.21 207.212L197.928 206.944L202.11 207.033L203.876 208.998L203.319 210.069L204.806 210.337L205.642 208.194L206.944 208.908L207.966 208.819L207.501 207.301L207.687 205.872L208.524 204.622L211.591 205.158L214.938 204.89L215.031 204.354L212.428 203.908L211.591 202.926L211.405 199.443L210.011 198.729L208.524 198.997V197.657L211.684 196.675V195.782L208.524 192.389L208.338 190.961L210.848 191.05L215.681 192.211L218.563 191.586L219.957 191.943Z" fill="white" stroke="black" stroke-linecap="round" stroke-linejoin="round"/>
<path d="M237.339 191.05L239.291 191.943L241.522 192.21L241.893 193.907L238.64 194.532L233.9 192.657L233.993 190.425L236.13 190.246L237.339 191.05ZM250.073 190.067L247.935 190.157L246.169 191.05L245.89 189.978L247.378 189.085L248.493 189.264L250.073 190.067ZM223.303 191.139L222.188 191.318L220.608 190.871L220.05 188.817L222.56 189.8L223.303 191.139ZM230.739 192.925L229.438 191.585L231.762 188.996L232.412 188.817L230.739 192.925ZM277.308 189.353L275.077 189.175L272.846 188.282L272.939 186.496L273.404 185.692L277.587 187.746L277.308 189.353ZM228.88 181.585L231.018 185.424L230.925 187.924L229.252 188.996H227.3L222.281 187.478L220.701 184.888L220.608 182.835L225.069 181.585L227.486 182.299L228.88 181.585ZM250.538 181.763L249.608 182.299L248.958 181.495L249.794 180.692L250.538 181.763ZM228.323 179.263H227.486V176.584L228.88 178.013L228.323 179.263ZM249.33 179.263L249.422 180.602L248.772 181.228L246.913 181.853L245.89 183.46L247.749 184.531L248.214 185.871L247.285 186.496L244.868 187.121V192.121L242.823 192.657L241.429 190.782L241.336 189.978L240.127 187.21L238.268 186.853L236.223 186.942L234.829 185.335L234.922 183.46L233.993 181.674L232.784 181.138L233.156 179.888L236.038 179.71L237.432 178.013V177.209L239.105 177.031L239.849 177.656L239.941 179.977L241.429 180.424L242.451 177.834L241.615 176.852L245.24 174.888L246.262 174.798L249.051 175.602L248.679 177.477L249.33 179.263ZM219.957 191.943L218.563 191.585L215.681 192.21L210.848 191.05L208.338 190.96L207.873 189.085L207.13 187.835L208.152 187.567L207.316 184.085L204.341 182.924L202.017 181.674L202.482 176.674L201.553 174.62L201.646 168.459L202.854 168.369L205.736 169.084L207.13 169.887L207.688 168.191L209.175 166.762L211.034 166.048L212.521 167.209L212.8 163.19L211.313 162.744L210.104 163.101L208.896 164.798L207.966 166.941L206.2 167.119L204.806 167.744L202.575 166.494L202.668 165.244L204.155 163.548L206.014 161.851H208.059L209.547 161.315L213.172 161.405L215.774 160.244L218.377 157.029L219.771 155.69L222.839 155.243L225.627 153.726L224.883 155.958L225.999 157.476V160.155L225.162 161.047L223.861 163.28L224.047 168.28L226.371 169.62H230.182L231.111 170.602L230.46 172.566L228.044 173.816H227.207L225.906 172.834L224.883 173.638L223.768 178.192L221.909 178.102L220.794 178.549L222.095 179.62L220.887 180.335L217.726 183.103L218.749 186.139L218.563 186.942L217.168 188.103L216.611 189.085L218.749 189.353L219.957 191.943Z" fill="white" stroke="black" stroke-linecap="round" stroke-linejoin="round"/>
<path d="M350.739 142.207L354.364 142.386L358.082 143.993L356.409 144.618L352.97 146.85L352.691 147.297L350.274 147.207L348.973 147.386L348.043 148.19L347.207 150.69L345.72 151.136L345.441 150.333L346.928 148.725L345.534 147.475L343.768 146.85L344.604 145.243L343.117 143.814L344.511 143.636L345.441 144.082L347.3 143.636L347.764 142.743L350.739 142.207ZM358.454 143.1L357.617 143.278L355.386 142.296L356.316 141.403L358.082 141.85L358.454 143.1ZM353.435 139.528L352.691 140.153L351.854 139.617L351.018 141.046L349.809 141.314L348.043 139.082L345.348 138.635L344.139 138.01L348.322 137.653L349.438 136.224L350.646 136.314L351.018 137.117L352.97 137.385L353.806 138.278L353.435 139.528ZM402.884 156.404L401.118 156.226L397.958 155.333L394.24 156.404L391.637 155.422L388.384 153.011L387.826 152.386L385.688 151.94L380.483 149.707L379.461 150.333L378.067 149.44L370.259 151.94L371.188 148.904L371.281 145.689L369.143 145.332L368.307 146.493L367.098 146.761L363.287 145.6L362.172 143.725L360.685 142.743L359.941 141.671V140.064L358.547 138.278L359.197 137.296L358.547 134.796L361.335 133.724L364.403 133.546L365.239 132.385L367.098 131.224L369.236 131.403L372.118 130.51L377.974 130.599L378.345 129.081H381.32L388.384 130.152H390.057L392.66 131.224L393.961 131.492H397.679L403.535 131.938L404.65 131.045L406.045 132.117L405.115 133.367L404 133.724L403.163 136.582L402.42 137.474L400.84 137.207L398.516 137.385L396.657 137.832L395.448 138.814L395.541 139.796L397.958 141.85L399.259 144.35L401.676 146.314L402.42 147.475L404.65 150.065L406.324 152.297L404.186 152.833L403.07 154.619L402.884 156.404Z" fill="white" stroke="black" stroke-linecap="round" stroke-linejoin="round"/>
<path d="M342.373 119.616L344.232 119.794L343.674 122.295L341.537 120.687L342.373 119.616ZM340.607 120.062L338.655 119.526L339.492 118.812L340.607 120.062ZM334.565 117.651L333.171 118.276L332.892 116.758L334.565 117.651ZM358.268 61.4866L356.873 61.933L355.665 61.6651L355.479 60.8615L357.338 60.3258L358.268 61.4866ZM386.246 12.733L382.807 13.8938L384.294 14.6082L385.038 15.6797L383.179 18.537L383.272 19.0728L386.153 22.6445L392.845 24.1624L394.983 25.7697L398.33 27.8234L400.003 28.627L400.096 30.3236L397.307 33.0024L394.89 35.7704L393.775 37.2884L394.147 38.8063L396.564 40.6815L398.701 42.6459L401.49 45.7711L404.278 48.0034L407.067 51.7537L407.439 53.0038L404 53.6289L405.115 54.4325L404.557 55.5933L404.836 57.2898L404.371 58.6292L406.137 58.8971L406.416 60.0579L404.836 60.9508V61.7544L406.137 63.2724L407.067 63.8082L410.041 64.3439L410.878 65.7726L409.948 67.2905L411.622 69.255L415.804 70.8622L416.455 72.023L416.641 73.541L414.41 76.2198L412.551 76.9341L413.202 77.6484L417.385 79.97L423.519 82.5595L425.936 83.7203L427.888 85.4169L429.933 86.8455L430.398 87.7385L428.91 91.7566L428.26 92.8281L426.215 94.7925L423.055 97.2927L420.917 99.3464L415.99 104.615L414.224 105.954L412.272 107.918L407.718 110.865L407.067 111.579L404.743 112.919L399.538 117.562L396.285 118.455L393.868 117.473L392.195 117.651L391.079 118.366L388.756 118.544L386.897 119.08L385.967 118.455L385.316 118.991L383.55 119.169L381.691 118.276L381.97 119.616L378.903 120.955L378.159 120.152L376.3 121.044L374.348 121.223L373.326 121.937L367.842 122.92L366.447 124.08L365.332 123.812L359.104 124.795L356.409 124.616L353.899 126.402L352.226 126.759L353.62 124.08L351.389 123.098L350.274 121.669L349.623 122.027L349.344 123.366L347.95 124.08L346.091 123.991L345.719 121.848L346.463 119.794L343.117 119.259L339.585 118.009L338.748 117.919L338.097 116.758L336.238 117.562L334.286 116.758L332.706 112.026V110.865L333.543 109.436L333.45 106.401L332.892 104.615L333.915 104.079L333.078 102.65L331.033 99.9715L329.546 98.9893L330.011 96.0426L329.453 94.614L327.687 93.6317L326.664 91.0423L327.222 88.8993L329.453 86.9348V85.8633L330.29 84.8811L329.825 83.7203L332.334 83.2738L333.264 83.631L335.495 83.2738L337.261 82.3809L336.238 80.7737L337.633 80.1486L338.748 79.0771L338.655 78.1842L340.793 77.7377L343.024 76.0412L345.162 75.059L347.3 73.3624L348.322 73.2731L348.601 72.1123L350.925 70.4158L351.668 68.9871L353.806 67.3798L355.851 63.8975L359.383 62.8259L362.915 63.0938L362.358 61.5758L363.287 61.308L362.729 60.1472L361.8 59.6114V55.504L360.591 54.7004L356.409 53.2717L354.829 53.1824L353.713 52.1109L349.437 51.4858L347.95 49.2535L346.184 47.2891L344.511 46.7533L343.303 44.4318V43.271L344.697 42.1102L344.604 40.5029L345.255 39.2528L344.697 38.4492L341.63 36.1276L340.886 34.6989L340.979 33.7167L341.908 33.0024L341.351 31.8416L338.748 31.4844L339.027 29.7878L338.376 28.5377L338.004 26.3947L339.027 25.5018L337.354 24.6982L335.588 23.3588L334.286 23.2695L333.171 21.8408L329.918 20.2336L322.203 18.7156L318.299 17.1083L313.837 15.0546L311.142 14.0724L310.77 13.2688L308.074 12.5545L308.539 12.1973H310.491L312.257 12.5545L312.722 12.0187L311.792 10.7686L313.558 9.78639H316.905L324.248 14.6975L325.549 16.3047L331.963 16.8405L332.706 17.2869L334.379 17.1976L337.819 16.394L338.934 15.3225L340.328 15.4118L343.674 16.394L347.3 17.1083L349.716 17.8227L350.925 17.2869L351.389 15.769L352.877 14.6082L354.829 14.3403L356.223 13.0902L355.572 10.2328L356.13 8.71488L356.781 5.32178L359.197 3.80381L360.777 2.19655L362.729 2.01797L366.262 2.37513L367.098 2.19655L370.351 0.767879L373.047 0.5L374.72 1.57151L378.624 3.35735L382.528 4.33956L385.874 5.0539L388.291 7.46479L387.64 8.35771L384.666 10.9472V11.5722L386.246 12.733Z" fill="white" stroke="black" stroke-linecap="round" stroke-linejoin="round"/>
<path d="M404.093 456.872H406.231L407.811 455.979L409.856 459.283L411.436 459.194L414.689 458.39L418.128 458.569L419.43 459.462L421.846 459.64L423.984 460.087L427.052 459.462L427.423 459.819L427.516 462.319L428.632 462.498L429.282 461.873L430.863 461.337H432.536L434.023 460.623L433.651 463.748L432.815 464.105L428.725 464.016L421.196 464.909L416.269 465.266L415.619 465.087L414.968 463.123L411.901 462.141L406.138 461.248L404.743 460.891L401.862 461.069L400.84 460.176L400.468 458.569L400.654 456.872L401.955 457.14L402.327 455.89L404.093 456.872ZM444.433 457.855L442.946 455.979L443.969 455.533L445.084 457.676L444.433 457.855ZM393.589 447.675L392.288 447.854L391.637 445.889L392.102 444.997L394.054 446.872L393.589 447.675ZM451.87 451.336L450.289 450.979L450.661 449.372L450.011 447.943L452.148 445.532L455.123 444.372L455.959 445.175L455.123 447.407L454.286 448.568L454.658 449.461L453.171 449.64L451.87 451.336ZM434.209 442.139L432.815 443.211L431.978 442.675L433.744 441.603L434.209 442.139ZM439.972 440.175V439.55L441.18 438.568L443.504 437.675L444.619 438.21L442.296 439.46L440.901 439.55L439.972 440.175ZM419.337 435.353L418.5 436.514L417.292 435.889L417.664 434.817L418.686 434.282L419.337 435.353ZM422.683 436.782L421.66 437.317L420.359 435.353L422.125 433.567L422.962 434.192L423.055 435.799L422.683 436.782ZM427.702 428.924L428.26 427.495L429.747 427.406V428.388L427.702 428.924ZM407.532 428.299L406.602 427.942L406.974 426.87L407.997 427.317L407.532 428.299ZM436.904 424.995L439.507 425.62L438.856 426.513L437.369 427.317L435.789 426.513L434.674 425.442L436.904 424.995ZM365.611 425.084L365.983 426.156L364.96 427.049L363.473 425.977L362.358 424.37L363.194 423.388L364.031 424.459L365.611 425.084ZM414.968 425.709L413.667 425.62L411.436 423.745L412.272 422.495L413.109 423.566L414.317 423.656L414.968 425.709ZM361.707 417.048L361.986 418.655L362.823 418.923L364.031 420.352L363.845 421.423L361.893 420.709L360.964 420.888L359.941 419.102L358.733 419.28L359.29 417.673L360.592 417.762L361.707 417.048ZM427.516 419.28L426.494 420.084L424.821 418.566L426.122 417.405L424.17 415.262L424.077 414.369L426.029 413.923L427.238 414.726L427.795 415.798L428.167 418.12L427.516 419.28ZM362.265 413.834L361.056 413.923L360.685 413.119L361.428 410.976L362.451 411.244L362.637 413.476L362.265 413.834ZM394.426 409.012L395.262 410.53L400.375 412.762L402.977 413.03L404.558 415.352L404.372 415.887L405.766 419.28L406.788 420.084L409.298 420.352L409.67 422.048L408.833 422.763L407.067 422.138L405.115 420.709L404.743 419.548L402.699 416.959L399.352 416.78L397.958 416.155L397.4 414.637L396.006 413.834L394.147 412.137L392.753 411.155L389.964 410.173L389.406 409.548L391.173 408.387L393.125 407.94L394.426 409.012ZM429.654 403.833L429.561 404.636L431.327 405.976L431.978 406.869L430.863 408.744L427.145 408.03L426.401 407.315L427.888 406.154L427.052 405.708L425.936 407.047L423.891 406.422L423.055 405.619L423.705 404.369L425.1 404.458L426.68 403.744V403.208L428.818 403.029L429.654 403.833ZM354.085 402.404L352.877 402.672L351.761 401.958L350.646 400.261L348.601 398.297L349.252 397.315L350.739 396.957L352.04 398.029L351.018 399.1L351.761 399.725L352.598 401.868L354.085 402.404ZM417.106 394.725L416.455 395.975L416.362 397.136L412.83 396.511L412.551 394.457L414.596 394.368L415.34 395.082L416.269 394.279L417.106 394.725ZM419.337 388.564L418.035 388.921L416.455 387.76L417.757 387.314L419.337 388.564ZM408.276 385.885L406.788 386.421L405.115 385.439L406.138 383.385L407.346 383.474L408.276 384.635V385.885ZM423.055 384.367L422.59 383.742L420.638 382.671L416.362 382.135L414.224 381.331L413.388 381.51L411.529 380.617L410.413 380.974L408.09 382.492L406.695 382.313L405.208 381.421L403.163 381.778L401.583 383.474L399.91 384.367L398.237 384.01H396.099L395.913 384.992L397.772 386.867L397.307 387.76L397.772 388.653L399.724 388.742L402.048 389.903L401.397 390.528L398.423 389.457L397.307 389.367L396.192 390.439L399.445 392.85L399.91 394.1L399.352 394.904L397.958 394.189L395.634 391.332L392.753 390.796L392.381 391.332L393.496 393.475L396.192 394.993L395.634 395.529L392.846 394.636L391.823 393.207L391.451 391.421L386.339 388.921L385.038 386.421L382.993 387.582L383.365 389.367L382.807 392.761L383.179 393.921L386.432 397.225L387.64 399.636L390.057 401.511L392.474 404.369L393.125 405.976L391.916 406.958L390.708 406.512L390.987 404.815L388.942 403.744L387.176 404.815L388.57 406.869L389.035 407.94L388.663 409.101L387.176 409.815L384.759 409.905L386.99 411.155L390.057 412.048L391.544 413.03L392.939 413.119L394.519 414.994L396.936 415.53L398.516 417.405L400.375 417.852L401.955 418.566L402.884 420.441L403.163 423.031L403.721 424.906L403.814 426.424L402.791 426.87L401.583 425.442L397.679 422.227L396.75 421.87L395.82 422.495L393.125 422.941L391.358 424.102L392.753 425.263L392.846 426.334L393.589 427.674L395.448 428.031L397.307 430.174L394.519 431.067L393.496 431.692L392.753 431.246L392.567 430.174L388.57 428.21L388.012 428.745L388.663 430.888L389.871 432.317L391.916 436.157L393.125 439.46L392.939 441.336L393.868 442.675L393.961 444.014L392.381 442.943L390.336 440.71L389.592 439.371L387.547 439.46L386.339 442.407L386.525 444.104L385.038 443.121L384.852 440.532L382.9 438.032L382.063 437.675L380.855 435.978L379.461 436.514L379.368 439.103L378.996 439.996L376.951 438.3L374.813 435.174L374.627 433.567L375.929 432.049L375.65 430.978L374.163 428.745L372.211 427.406L371.095 426.96L370.445 425.531L368.586 424.37V423.477L370.445 421.959L371.374 419.638L373.14 420.084L374.441 419.905L376.3 417.762L377.788 417.852L381.413 419.727L385.317 420.798L387.269 421.691L388.384 422.674L389.871 422.941L389.406 421.691L390.15 421.334H392.102L392.288 419.905L390.429 419.37L389.685 419.548L387.455 418.298L385.317 417.584L383.272 416.244L382.156 417.405H381.041L377.881 416.602L375.929 417.227L372.025 417.852L371.002 416.691L368.586 417.584L367.656 416.959L365.89 413.209L364.31 411.512L363.194 411.066L363.008 409.369L364.403 409.19L366.634 409.994L367.47 409.458L366.912 408.03L364.589 407.851L362.915 408.297L360.313 406.333L358.919 404.815L356.874 403.833L355.294 400.797L352.877 398.475L355.386 399.279L356.037 398.654L356.316 397.315L357.153 396.689L356.223 394.725L357.803 393.564L359.569 393.296L360.127 392.85L360.406 391.064L361.521 388.296L363.101 387.582L363.845 385.26L362.823 383.653V382.671L367.098 382.403L367.935 381.867L370.073 382.403L372.304 381.242L373.884 379.01L374.627 378.742L377.416 378.385L380.483 378.92L383.179 378.027L383.365 376.152L385.224 375.884L388.012 376.063L388.942 375.17L391.173 374.991L393.589 375.17L396.378 374.188L398.144 374.009L398.33 373.206L402.234 373.295L403.721 372.848L404.836 374.366L407.067 375.617L407.904 375.081L411.343 376.152L412.923 377.135L416.083 376.331L419.058 375.974L420.731 376.242L423.055 375.17L423.241 374.456L422.404 372.045L421.753 371.152L423.241 370.17L424.728 370.616L425.843 370.884L427.981 372.223L428.818 374.991L425.657 377.224L426.122 381.153L423.798 384.01L423.055 384.367Z" fill="white" stroke="black" stroke-linecap="round" stroke-linejoin="round"/>
<path d="M309.562 352.847L311.699 353.204L310.677 354.008L309.562 352.847ZM321.552 354.186L323.039 354.097L323.597 354.901L329.36 358.294L330.94 358.919L332.056 360.616L327.594 357.847L323.504 355.615L320.623 354.99L316.626 353.204L316.161 352.401L321.552 354.186ZM315.696 351.061L314.953 351.151L309.747 351.061L308.167 350.793L307.703 349.633L309.376 349.811L309.84 350.347L315.696 351.061ZM310.77 349.008L308.911 349.097L306.494 348.383L306.773 347.4L311.235 347.936L310.77 349.008ZM291.064 334.274L290.785 334.631L287.718 332.221L287.439 330.524L290.042 332.935L291.064 334.274ZM286.51 328.47L284.744 328.292L285.487 327.31L286.51 328.47ZM282.606 329.81L281.769 329.72L280.189 325.97L280.561 324.899L279.817 323.113L280.654 322.845L281.119 324.72L282.048 325.524L281.955 326.952L282.606 329.81ZM286.045 325.434L284.651 325.702L283.721 324.809L282.513 324.631L281.583 323.738L282.513 323.113L282.978 322.041L286.045 325.434ZM332.056 312.308L331.405 313.648L332.892 316.059L333.078 317.487L334.286 317.845L333.915 319.63L335.03 320.523L337.819 321.416L338.655 322.756L336.517 322.845L334.937 323.202L335.588 325.524L334.658 326.952L332.613 326.774L331.405 324.809L330.383 324.095L328.338 323.916L325.921 323.291L324.248 323.47L322.575 323.202L320.53 324.095L319.043 322.934L317.462 323.47L314.86 322.845L312.536 322.756L310.026 321.327L308.632 322.398L305.658 322.131L303.148 324.988L301.475 324.095L299.895 322.488L298.222 322.131L297.106 322.666L296.827 327.131L296.92 328.381L298.686 329.542L301.847 332.399L303.055 335.971L305.193 338.114L307.795 340.168L309.376 341.953L314.023 345.614L316.254 346.597L316.626 348.561L318.02 349.99L320.809 352.222L320.53 353.651L317.276 351.151L314.86 349.811L311.978 347.311L308.446 346.329L305.936 345.257L302.869 345.793L301.196 345.614L300.545 343.65L295.154 340.168L291.157 336.596L290.414 335.435L293.295 334.364L291.994 333.649L288.369 330.613L287.253 329.185L287.16 325.524L286.417 324.006L283.721 322.041L282.699 321.059L280.747 320.434L279.445 321.238L279.167 322.934L276.378 327.399H275.17L272.288 323.649L271.823 321.952L270.615 318.47L271.266 318.023L271.731 318.559L274.798 319.273L276.099 318.112L277.122 318.559L280.468 318.47L281.026 318.202L282.141 316.237L284.558 318.112L285.952 318.737L287.16 318.291L289.019 318.916L290.507 319.095L291.622 318.737L290.878 316.684L291.529 316.059L290.6 315.076L292.552 314.184L294.504 313.648L294.875 312.666L294.689 310.701L293.853 309.898L294.225 308.647L298.314 307.129L298.965 306.237H300.824V304.719L301.661 304.004L303.985 304.54L306.68 305.612L308.26 306.683L309.097 307.844L311.607 309.451L313.651 311.416L314.86 312.041L317.184 312.576L318.392 313.737L321.459 314.541L326.014 314.719L328.338 313.916L329.36 312.666L332.056 312.308Z" fill="white" stroke="black" stroke-linecap="round" stroke-linejoin="round"/>
<path d="M365.146 278.377H366.541L367.842 280.431L369.887 281.146L370.723 282.128L372.861 282.485L373.698 283.11L374.348 284.628L372.304 286.682L368.028 287.664L366.262 289.807L365.146 290.7L365.239 292.218L363.938 293.468L363.287 295.7L361.986 297.04V298.111L360.499 300.522L360.685 301.683L358.733 303.022L357.338 307.219L356.13 308.023L353.713 307.755L351.39 309.54L350.088 309.094L347.114 309.898L346.184 309.451L343.582 309.183L342.559 309.362L339.864 309.005L338.934 309.273L337.54 310.701L335.495 311.594L334.008 311.148L332.056 312.309L329.36 312.666L328.338 313.916L326.014 314.719L321.459 314.541L318.392 313.737L317.184 312.576L314.86 312.041L313.651 311.416L311.607 309.451L309.097 307.844L308.26 306.683L306.68 305.612L303.985 304.54L302.219 302.576L300.917 299.629L298.686 299.54L300.36 298.022L302.683 297.575L302.962 295.968L301.94 294.539L302.404 293.914L302.033 292.575L304.078 291.503L304.542 290.253L304.078 289.271L301.661 288.646L302.869 287.396L305.193 288.2L308.818 287.932L308.167 286.146L308.725 284.449L309.283 283.824L311.235 284.092L315.139 286.503L316.626 287.128L320.995 287.217L327.501 286.86L328.059 285.967L327.594 284.807L327.966 283.914L329.267 283.289L333.264 282.931L335.495 282.396L336.424 281.056L337.075 280.878L340.328 282.128L344.976 279.895L346.463 276.77L348.136 276.413L350.646 276.502L352.97 277.038L357.245 276.413L358.547 277.217L360.592 279.181L361.149 279.36L365.146 278.377Z" fill="white" stroke="black" stroke-linecap="round" stroke-linejoin="round"/>
<path d="M50.8573 181.544L51.4961 181.672L52.9866 180.645L54.1577 179.232L54.4238 180.645L53.093 183.727L54.2641 184.883L55.3288 185.269L55.2755 187.452L54.3706 189.508L54.7964 189.893L56.6595 189.251L57.1919 192.205L57.9903 191.948L59.2679 192.333L60.0132 193.875L60.6519 193.489L60.9181 194.646L60.5455 196.187L59.747 196.958L60.8649 200.683V202.096L60.3325 202.995H59.6405L59.1082 205.692L58.4694 207.105L57.4048 208.389L56.0208 207.747L55.4352 209.674L55.5417 211.472L54.8497 213.142L52.0284 215.839H50.6976L49.3136 216.482L46.0132 219.051L43.5113 222.647L42.4467 223.546L40.7965 223.932L39.8383 224.574L36.6976 225.602L35.633 226.244L34.9942 227.657L34.728 229.455L32.5988 230.868L30.576 231.767L27.1691 231.125L24.2946 229.455L21.8992 229.07L19.8764 225.858L18.3327 224.574L16.4163 222.262L15.192 223.675L8.59123 224.06L8.16538 223.418L8.05891 220.72L8.64447 219.693L9.33648 221.234L11.9981 219.821L13.4353 217.381L14.7661 213.913L12.903 215.454L12.7965 213.014L12.3175 211.601L11.4125 210.573L11.2528 209.546L11.8384 208.389L10.614 206.848L9.23002 206.977L5.71672 206.334L3.69391 207.619L2.62927 207.747L2.15019 206.463V205.05L2.94867 204.664L3.90684 204.793L6.08934 204.022L6.83459 203.252L7.26044 203.894L9.17678 202.481L9.7091 202.738L11.8384 202.481L14.1806 202.352L14.7661 201.325L14.979 199.912L13.4886 201.068L11.519 200.426L11.1996 199.27L13.1159 197.214L14.5532 196.187L14.1273 194.517L12.4239 194.774L12.0513 193.746L10.6673 193.233L9.7091 193.618L9.23002 192.976L7.95245 193.746L5.1844 194.902L3.42775 196.058L1.77757 194.646L0.5 194.389L1.24525 192.59L2.30989 192.462L3.21483 193.489L3.26805 189.379L3.90684 189.765L5.39732 191.177L5.0247 187.581L6.1958 187.709L5.0247 185.654L5.29086 184.37L6.14257 183.984L6.56843 182.7H7.84599L9.07032 184.113L9.17678 185.911H10.2947L10.8802 184.883L11.3593 185.654L11.6255 187.196H12.2642L12.4772 184.37L10.5608 182.957L10.4011 181.158L12.3707 181.03L11.4658 179.617L9.8688 179.874L9.12355 179.36L10.5076 177.819H12.3175L13.0627 178.076L14.287 180.259L15.3517 181.03L17.0019 183.984L18.173 185.14V186.682L18.5456 187.709L17.3213 192.077L17.8003 192.976L17.3745 195.031L18.3859 195.802L18.9182 197.985L19.3973 195.673L20.1958 193.233L21.4201 191.563L21.8992 191.691L22.3783 192.976L22.8574 193.104L23.6026 190.535L23.9752 185.012L24.8802 183.856L25.8383 184.755L26.5304 186.81L27.9144 189.508L28.8726 188.865L28.9258 185.911L29.4581 184.241L30.5227 183.856L31.6938 182.828L32.9182 182.571L33.8231 184.37L34.4619 186.168L35.3668 187.581L35.7394 189.893L36.2185 189.508L36.1121 187.324L35.3668 183.984L35.5265 182.828L37.709 183.085L39.306 186.039L39.998 185.654L41.9143 182.058L43.1387 183.085L44.0968 183.214L45.5873 182.186L46.0132 180.645L45.5341 177.69L45.8535 177.177L47.2375 176.406L48.6748 176.534L50.0588 179.232L50.0056 180.516L50.8573 181.544Z" fill="white" stroke="black" stroke-linecap="round" stroke-linejoin="round"/>
<path d="M301.568 419.281L300.452 421.513L297.85 425.353L296.456 429.906L296.734 431.692L298.222 432.942L297.571 433.389L299.058 434.996L299.151 436.157L297.478 437.853L297.106 439.371L297.199 440.711L294.504 440.175L293.202 440.443L289.763 439.193L287.997 436.693L285.209 434.907H282.42L281.119 434.46L278.423 432.764L275.635 431.514L273.218 429.639L271.638 429.281L270.243 428.388H267.548L265.41 426.96L264.202 424.906L265.41 421.602L266.711 420.888L267.548 419.816L269.686 421.87L271.359 421.156L272.66 419.727L274.891 419.816L275.356 420.62L276.657 420.888L278.981 422.317L280.282 422.674L283.442 421.781L286.231 422.138L288.834 421.692L290.414 421.156L291.529 420.263L292.83 419.995L296.084 420.263L297.943 419.191L298.686 419.37L300.545 418.298L301.568 419.281ZM228.787 382.224L229.438 383.028L231.111 387.493L230.553 388.921L229.345 390.707L230.089 393.207L229.531 403.476L228.973 406.065L228.137 406.423L225.441 405.351L224.047 405.619L222.931 405.083L222.653 407.762L220.979 409.637L218.191 409.459L217.54 408.923L215.309 405.53L214.938 401.69L215.495 400.529V398.297L216.518 398.208V396.69L214.845 395.618V393.922L215.495 392.672L215.402 390.35L214.659 389.546L213.915 387.493L211.87 385.35L211.963 382.314L215.124 382.849L216.332 382.582L219.213 381.242L221.165 379.01L222.467 378.563L223.861 376.956L224.512 377.76L226.556 378.474L227.672 379.814L228.508 380.26L227.858 381.51L228.787 382.224ZM236.502 354.722L236.781 355.973L234.457 356.419L233.435 355.437L236.13 355.258L236.502 354.722ZM271.731 304.183L271.545 304.987L268.477 307.04L269.128 308.29L271.266 308.916L269.779 310.791L270.058 311.684L271.266 311.862L270.894 313.648L272.66 314.63L274.054 315.791L274.24 316.952L272.846 317.041L273.497 316.505L271.638 314.541L269.779 315.345L266.804 314.541L264.852 316.327L263.458 316.684L261.878 317.666L258.903 318.738L257.23 318.38L256.301 319.006L255.929 321.774L256.673 322.309L258.067 324.631L259.647 325.613L258.996 327.31L258.16 327.935L256.951 327.488L256.673 329.006L257.509 333.024L258.81 335.882L259.926 337.043L262.436 339.007L264.945 339.989L269.686 343.293L272.288 344.275L272.939 344.9L274.612 347.4L276.099 350.258L277.772 354.812L278.981 357.044L281.119 359.633L285.58 363.294L289.577 365.884L293.295 367.581L296.084 367.848L302.59 367.491L305.007 368.116L305.379 369.188L305.007 369.991L302.312 371.867V373.384L303.706 374.456L310.305 377.313L316.998 379.635L319.043 380.885L321.552 382.76L327.501 385.35L328.524 386.6L332.242 389.279L333.915 391.422L334.38 393.029L332.985 396.958L331.498 396.511L329.732 395.35L326.851 390.529L322.203 390.082L319.507 388.921L318.857 387.671L316.719 387.314L315.51 388.118L314.209 389.904L312.815 392.582L311.421 396.422V397.94L312.443 399.458L315.139 400.351L317.37 401.69L318.857 403.119L319.136 406.512L319.972 408.387L319.136 409.548L317.37 409.28L315.046 409.905L313.466 411.155L312.815 412.405L313.28 415.441L313.001 416.691L309.933 418.924L308.446 421.156L307.517 423.21H303.52L302.497 421.87L302.404 419.906L302.962 418.745L304.449 418.12L305.286 415.62L304.821 413.834L305.844 412.405L308.446 411.78V409.191L307.145 408.03L305.844 403.476L303.613 399.636L302.312 396.243L301.289 394.636L299.988 393.743L296.549 393.475L292.273 391.154L291.994 390.171L292.552 389.189L291.529 386.689L289.67 385.171L287.253 385.707L286.138 385.618L286.045 384.278L284.186 383.117L281.676 382.939L281.026 382.314L278.609 378.742L277.029 377.224L274.891 377.313L271.266 376.51L269.407 377.135L266.432 374.813L263.83 374.01L258.532 369.277L256.858 367.491L253.605 365.527L251.467 362.669L249.794 361.598L246.076 360.348L245.797 359.187L242.916 356.419L241.336 355.526L240.127 353.651L237.804 353.204L237.896 350.794L236.781 347.668L235.201 345.704L234.085 340.971L233.342 339.632L231.669 338.65L227.951 337.578L222.653 334.542L221.63 334.453L218.47 333.292L216.518 333.114L214.101 334.185L211.22 337.043L208.896 340.078L208.059 340.614L204.899 341.686L202.11 342.132L201.924 340.793L203.876 338.471L203.598 336.685L200.53 337.221L195.79 335.078L194.953 334.274L194.86 333.024L194.21 331.864L195.511 329.631L196.254 329.006L195.79 327.488L192.815 326.238L191.421 323.47L192.165 323.113L193.931 323.292L195.511 322.131L196.626 321.863L197.37 319.631L195.697 318.202L194.117 315.88L193.28 315.345L193.187 313.916L195.604 312.398L196.905 313.023L199.136 312.577L201.553 311.684L204.434 312.398L206.665 311.148L208.152 309.183L207.594 307.844L210.755 305.255L211.684 305.79L211.87 308.023L214.101 309.808L216.146 310.344L215.774 311.416L216.983 312.487L217.819 313.737L218.935 313.112L218.284 311.594L218.47 310.701L220.515 308.38L220.979 307.398V304.808L222.838 304.719L223.582 306.594L225.441 307.308L228.137 306.326L228.787 306.415L230.089 308.112L231.204 307.844L229.81 304.719L230.367 303.112L231.576 302.844L232.505 303.647L234.271 303.826L233.807 302.219L234.271 299.451L237.06 299.718L237.896 300.433L239.848 300.79L240.871 300.433L241.986 298.468L243.288 297.933L246.448 297.665L249.329 297.843L253.698 296.504V298.558L256.58 301.683L257.602 302.129L265.596 303.469L269.314 303.737L271.731 304.183Z" fill="white" stroke="black" stroke-linecap="round" stroke-linejoin="round"/>
<path d="M224.233 296.861L223.117 296.772L223.024 295.254L223.489 293.915L224.512 296.147L224.233 296.861Z" fill="white" stroke="black" stroke-linecap="round" stroke-linejoin="round"/>
<path d="M399.445 180.781V182.389L398.794 185.157L402.42 186.05L401.211 186.942L400.839 187.925L397.493 187.835L396.564 189.621L395.82 190.157L393.403 190.693L392.381 193.372L392.753 195.425L391.823 196.765L391.358 198.55L393.124 198.997L393.961 199.979V200.872L392.102 201.051L390.522 198.997L389.592 199.622L387.64 200.068L386.339 201.14L384.48 200.961L383.736 203.283L382.063 203.194L378.996 204.354L377.509 203.551L374.069 203.819L372.582 204.087L369.887 203.729L369.143 201.051L368.121 200.247L363.938 198.283L361.8 197.658L361.242 198.193L360.034 196.407V194.532L360.963 191.764L359.755 190.603L358.454 190.068L357.617 188.907L352.319 188.818L350.088 188.282L346.463 187.032L344.604 185.96L342.931 186.139L342.373 185.067L342.559 183.639L341.537 181.496L340.049 178.906L339.399 175.513L342.001 173.995L345.348 172.299L349.716 171.048L355.2 171.495L359.197 171.406L360.127 172.209L361.614 171.584L366.169 172.031L368.307 172.12L371.746 172.924L376.021 172.566L377.602 171.406L379.74 171.227L381.97 173.817L387.64 174.709L388.477 175.067L393.496 177.835L395.913 179.71L397.307 180.335L399.445 180.781Z" fill="white" stroke="black" stroke-linecap="round" stroke-linejoin="round"/>
<path d="M183.334 255.072L183.613 257.037L185.007 258.465L187.61 259.448V260.698L186.774 261.501L186.216 264.18L185.007 263.555L183.148 264.091H181.847L179.895 263.019L180.918 261.501L179.059 259.358L179.245 257.84L180.546 255.608L181.754 254.447L183.334 255.072Z" fill="white" stroke="black" stroke-linecap="round" stroke-linejoin="round"/>
<path d="M402.884 156.404L404.65 156.672L405.115 157.654L408.09 159.172L408.74 161.137L407.997 162.565L407.718 165.333L409.391 165.066L410.32 165.601L410.599 166.673L412.179 168.548L413.388 169.262L415.154 173.013L414.875 174.531L413.667 174.709L412.365 175.423L410.042 177.566L409.67 179.084L406.788 178.995L404 178.638L402.977 178.906L401.862 180.245L399.445 180.781L397.307 180.335L395.913 179.71L393.496 177.834L388.477 175.066L387.64 174.709L381.97 173.816L379.74 171.227L377.602 171.405L376.022 172.566L371.746 172.923L368.307 172.12L366.169 172.03L361.614 171.584L360.127 172.209L359.197 171.405L355.201 171.495L349.717 171.048L345.348 172.298L342.002 173.995L339.399 175.513L338.655 173.013L338.098 168.102L338.191 165.601L339.957 164.173L340.7 163.101L341.258 159.083L343.582 155.869L345.813 155.511L348.694 154.618L351.947 153.815L353.249 155.511L357.803 158.19L358.919 159.083L361.056 162.119L365.146 163.726L368.028 163.19L371.374 161.047L372.304 160.065V159.083L371.188 154.886L370.166 153.1L370.259 151.94L378.067 149.439L379.461 150.332L380.483 149.707L385.688 151.94L387.826 152.386L388.384 153.011L391.637 155.422L394.24 156.404L397.958 155.333L401.118 156.226L402.884 156.404Z" fill="white" stroke="black" stroke-linecap="round" stroke-linejoin="round"/>
<path d="M361.242 198.193L361.8 197.657L363.938 198.283L368.121 200.247L369.143 201.051L369.887 203.729L371.839 208.283L374.534 212.659L376.114 215.873L376.951 219.355L376.393 220.784L372.675 222.302L371.932 222.749L370.073 225.159V226.231L373.14 227.392L374.813 228.285L375.557 229.178L375.371 231.321L375.743 232.303L374.999 233.642L375.092 234.803L376.021 236.232L377.137 237.839V239L379.646 241.5L381.413 244L382.714 244.893L381.598 246.054L383.272 248.375L383.365 249.536L382.249 251.143L379.461 251.59L374.999 255.697L372.768 258.108L369.608 262.037L369.05 262.93L370.444 266.323L370.351 267.93L372.117 269.181L371.746 269.984L368.678 269.359L367.842 269.181L362.544 267.484L361.8 266.234L360.87 265.609L357.989 264.716L354.643 264.448L351.668 264.627L350.367 265.966L348.694 265.877L346.463 264.984L343.675 265.073L341.537 265.966L340.514 267.841L338.934 267.305L337.633 267.663L337.075 265.252L335.774 264.894L332.985 262.216L330.94 263.377L330.011 264.894H327.966L327.501 263.555L326.293 263.377L325.828 261.948L323.225 259.983L322.761 258.376L320.251 257.662L319.786 257.84L316.533 256.233L314.86 257.126L313.93 256.59L311.421 254.537L312.722 254.09V252.661L309.376 253.287L306.308 251.59L304.263 251.054H303.055L304.635 253.197L301.382 255.43L300.452 255.072L299.058 253.376L297.199 251.769L295.712 250.965L297.199 249.893L297.85 248.911L296.177 247.84L293.202 248.465L292.459 247.661L289.949 246.679L285.673 245.697L284.744 244.714L284.465 243.732L281.397 243.018L281.49 244.714L279.538 245.072L281.026 241.857L281.397 239.803L279.91 236.946L277.865 236.142V234.714L276.099 231.946L276.843 230.963L277.493 228.642L276.75 226.945L274.891 224.892L275.449 222.57L274.147 221.052L271.08 219.177L269.593 217.927L270.243 216.498L272.009 214.891L272.288 212.48L270.615 208.819L269.964 206.497L272.567 207.301L273.218 206.855L273.125 205.247L269.314 204.622L269.221 203.551L271.08 203.908L274.612 202.658L280.654 201.051L287.067 199.533L290.135 199.086L291.994 197.122L293.76 195.604L297.292 194.979L298.5 194.264L301.103 193.193L307.238 192.121L312.35 191.764L317.369 193.818L316.533 194.086L313.744 193.014L315.789 196.139L316.812 197.211L318.671 198.015L320.251 198.283L324.805 197.836L326.85 196.854L327.315 196.943L333.45 197.3L354.736 198.104L361.242 198.193Z" fill="white" stroke="black" stroke-linecap="round" stroke-linejoin="round"/>
<path d="M439.879 318.916L441.273 320.344L442.946 321.148L446.664 321.952L447.222 320.88L448.059 321.148L449.546 320.702L451.591 319.541L453.636 319.362L455.681 319.987L457.447 321.595L457.261 325.434L456.61 327.309L450.847 328.47L451.219 327.934L450.568 326.148L449.639 325.256L448.802 326.238L449.36 327.756L448.709 329.006L448.523 331.149L449.081 331.952L447.594 333.738L447.129 334.899L447.873 339.185L447.501 342.489H445.642L443.225 342.043L441.18 341.417L438.856 339.096L437.276 339.542L436.44 339.007L433.465 338.649L429.283 336.596L426.587 336.953L422.497 337.756L419.523 338.828L416.455 340.703L415.34 342.132L413.853 342.935L411.715 343.471L407.811 343.293L399.073 341.775L396.75 342.221L393.496 341.864L388.57 340.971L384.945 340.703L381.506 341.239L380.669 339.632L382.342 337.846L378.345 335.613L377.602 334.542L376.115 333.738L375.65 332.22L377.974 330.613L375.185 329.184L373.605 329.631L372.025 331.238L370.816 331.417L369.887 330.345L368.493 329.72L365.239 329.095L363.845 328.024L361.893 327.488L362.079 326.952L363.752 326.238L361.614 325.256L363.009 323.47L362.172 322.488L359.755 321.773L356.223 320.077L354.178 318.469L353.806 314.808L353.063 314.987L351.39 313.201L348.694 311.683L347.114 309.897L350.088 309.094L351.39 309.54L353.713 307.754L356.13 308.022L357.338 307.219L358.733 303.022L360.685 301.682L360.499 300.522L361.986 298.111V297.039L363.287 295.7L363.938 293.468L365.239 292.217L365.146 290.7L366.262 289.807L368.028 287.664L372.304 286.681L374.349 284.628L376.301 283.824L377.137 282.753H377.788L380.297 284.092L382.807 284.003L389.221 285.253L392.567 284.628L393.682 284.896L397.679 287.842L399.631 287.396L400.561 286.324L403.721 285.163L411.529 284.092L412.551 282.395L412.737 281.145L416.176 280.431H418.128L420.452 281.86L422.776 284.538L425.564 288.914L426.959 290.074L429.283 292.932L431.234 294.539L432.443 296.057L435.231 297.932L436.533 300.522L437.834 302.575L438.299 305.165L437.462 309.451L437.555 311.772L438.856 316.237L438.02 316.862L439.879 318.916Z" fill="white" stroke="black" stroke-linecap="round" stroke-linejoin="round"/>
<path d="M368.678 269.359L367.284 272.038L366.541 274.627L365.053 276.145L365.146 278.378L361.149 279.36L360.592 279.181L358.547 277.217L357.246 276.413L352.97 277.038L350.646 276.503L348.136 276.413L346.463 276.77L344.976 279.896L340.328 282.128L337.075 280.878L336.424 281.056L335.495 282.396L333.264 282.932L329.267 283.289L327.966 283.914L327.594 284.807L328.059 285.968L327.501 286.86L320.995 287.218L316.626 287.128L315.139 286.503L311.235 284.092L309.283 283.825L307.145 281.235L305.658 278.646L305.565 277.931L306.401 275.788L307.424 273.288L308.725 272.217L312.071 272.663L313.652 272.484L315.046 271.859L316.998 270.163L318.485 269.448L319.136 266.77L321.273 265.698L321.831 264.984L323.69 263.644L326.293 263.377L327.501 263.555L327.966 264.895H330.011L330.94 263.377L332.985 262.216L335.774 264.895L337.075 265.252L337.633 267.663L338.934 267.305L340.514 267.841L341.537 265.966L343.675 265.073L346.463 264.984L348.694 265.877L350.367 265.966L351.668 264.627L354.643 264.448L357.989 264.716L360.871 265.609L361.8 266.234L362.544 267.484L367.842 269.181L368.678 269.359Z" fill="white" stroke="black" stroke-linecap="round" stroke-linejoin="round"/>
<path d="M303.985 304.54L301.661 304.004L300.824 304.718V306.236H298.965L298.315 307.129L294.225 308.647L293.853 309.897L294.69 310.701L294.876 312.666L294.504 313.648L292.552 314.183L290.6 315.076L291.529 316.059L290.879 316.684L291.622 318.737L290.507 319.095L289.02 318.916L287.161 318.291L285.952 318.737L284.558 318.112L282.141 316.237L281.026 318.202L280.468 318.47L277.122 318.559L276.099 318.112L274.798 319.273L271.731 318.559L271.266 318.023L272.846 317.041L274.24 316.952L274.054 315.791L272.66 314.63L270.894 313.648L271.266 311.862L270.058 311.683L269.779 310.79L271.266 308.915L269.128 308.29L268.477 307.04L271.545 304.986L271.731 304.183L276.378 304.986L281.026 305.611L283.814 304.54L284.744 303.379L286.51 302.754L288.927 302.575L291.529 302.754L293.667 301.772L295.154 301.593L297.385 302.04L297.478 300.343L298.686 299.54L300.917 299.629L302.219 302.575L303.985 304.54Z" fill="white" stroke="black" stroke-linecap="round" stroke-linejoin="round"/>
<path d="M290.878 172.655L289.484 172.388L289.205 168.994L291.064 164.887L291.994 164.619L294.504 158.815L294.968 160.601L293.574 163.458L293.295 165.423L292.737 165.869L290.878 172.655ZM315.232 152.386L314.023 153.636L312.722 154.083L312.815 157.029L314.209 158.101L313.001 158.547L312.35 160.155L310.677 160.69L309.283 162.119L309.004 163.548L307.052 164.351L308.167 162.208L307.331 161.583L306.03 159.708L306.401 158.904L305.844 156.047L308.353 153.458L309.562 152.475L312.629 151.583H313.837L315.232 152.386ZM349.438 51.486L346.928 51.7538L344.883 51.2181L343.953 51.486L340.421 51.7538L339.399 52.3789L337.447 51.7538L335.588 50.6823L333.729 51.6645L332.242 50.7716L331.312 52.4682L331.405 54.0754L329.732 53.8968L330.011 54.8791L328.152 56.2184L325.177 56.397L325.828 57.7364L324.991 58.3615L325.921 59.8794L324.713 61.2188L322.761 62.9154L322.296 63.8083L323.876 64.7905L325.363 67.0228L326.85 68.005L326.479 69.0765L324.527 70.0587L322.482 71.5767L320.623 75.4163L317.741 76.5771L315.51 78.0057L312.722 78.6308L310.491 80.5952L308.818 79.8809L307.424 80.3273L306.494 81.9346L304.728 83.274L302.497 83.0954L302.683 83.8097L300.545 84.0776L299.616 87.6493L297.571 88.1851L296.92 88.8994L296.084 88.3636L294.132 88.4529L295.619 90.9531L294.039 92.5604H292.923L291.529 93.1854L289.763 92.4711L289.577 93.5426L290.321 94.7034L291.529 95.5963L291.436 96.7571L290.6 100.597L291.25 102.204L289.298 103.275L288.555 104.258L289.112 105.776L289.019 106.758L289.67 108.454L290.414 112.205L291.436 113.991L291.343 115.419L292.552 116.223L294.504 116.134L295.805 117.562L298.686 116.848L299.43 117.83L302.126 119.795L303.706 120.062L305.472 121.134V122.473L308.167 123.366L309.933 125.152L310.677 126.581L310.584 127.474L308.167 128.813L306.959 129.974L303.427 131.849L302.869 131.76L300.917 132.653L302.776 133.188L304.078 132.563L306.494 132.028L307.796 133.099L305.751 133.546L305.472 134.974L304.728 135.867L302.869 136.492L300.267 137.832L296.548 139.082L295.526 140.153L293.109 141.046L291.901 141.76H288.369L284.93 141.671L285.859 142.475L286.696 142.296L290.042 142.653L291.622 143.814L288.834 144.618L290.414 147.475L289.763 148.189L290.135 151.315L289.112 151.404L288.834 152.654L289.391 154.886L290.321 156.761L290.228 157.654L288.834 159.797L289.67 162.387L288.276 167.119L286.51 169.887L285.301 173.548L283.628 174.798L281.398 173.995L278.237 174.441L275.263 174.173L272.474 174.352L271.731 174.709L272.381 175.959L270.243 175.781L268.663 176.763L266.804 178.638V179.977L268.57 182.656L266.99 184.442H265.968L262.993 183.996L257.881 185.067L253.14 184.174L253.605 183.281L253.791 180.513L253.233 178.995L252.025 178.013L249.144 174.62L248.028 172.566L250.259 173.37L251.188 172.923L249.515 170.602L251.56 170.512L252.211 169.62L251.653 168.28L249.887 167.744L248.121 165.601L246.448 164.53L243.195 160.333L241.986 157.476L240.964 157.744L239.848 154.44L238.268 153.904L237.711 150.6L236.037 150.243L234.829 148.725L234.457 145.868L233.342 145.332L232.598 144.082L231.855 141.403L231.576 138.992L230.739 137.385L231.204 136.314L232.226 136.135L233.249 136.849L234.178 138.457L235.944 138.278L236.595 137.028L237.153 133.546L235.666 129.617L237.06 128.277L237.896 126.134L240.313 125.509L241.522 124.795L243.288 123.009L243.381 120.509L243.938 118.634L243.473 117.384L240.592 113.008L240.313 111.58L241.986 111.044H244.217L245.425 108.812L245.797 107.115L242.637 104.704L241.522 104.347L237.989 102.472L238.826 96.7571V95.3284L236.502 91.3996L236.595 89.7923L236.037 87.2921L237.06 86.3099L234.55 82.6489L236.409 80.1488L235.944 78.8094L237.06 77.9165L240.313 74.5233L243.381 73.184L246.448 72.8268L253.047 73.6304L254.628 71.666L254.535 70.5945L253.512 68.005L249.144 66.5763L253.233 62.1117L256.301 57.6471L256.394 53.4504L256.951 51.0395L255.65 47.5571L259.182 47.1999L261.413 46.7535L264.48 45.4141L263.551 43.1818L264.759 42.3782L267.548 39.7887L270.615 37.1992L272.009 36.3063L272.195 35.0562L271.266 33.8954L268.756 31.8417L269.221 30.8595L271.731 30.3237L272.753 29.3415L274.147 26.2163L277.586 24.5197L278.981 23.7161L284.837 25.3233L286.789 22.5553L286.045 19.3408V18.6264L287.997 18.18L291.808 18.9836L294.504 19.0729L302.497 20.5909L303.427 20.6801L305.751 19.2515L303.055 18.4478L304.542 17.6442L305.844 15.9477L305.751 14.1618L303.334 12.7331L308.074 12.5546L310.77 13.2689L311.142 14.0725L313.837 15.0547L318.299 17.1085L322.203 18.7157L329.918 20.2337L333.171 21.8409L334.287 23.2696L335.588 23.3589L337.354 24.6983L339.027 25.5019L338.005 26.3949L338.376 28.5379L339.027 29.7879L338.748 31.4845L341.351 31.8417L341.909 33.0025L340.979 33.7168L340.886 34.699L341.63 36.1277L344.697 38.4493L345.255 39.2529L344.604 40.503L344.697 42.1103L343.303 43.2711V44.4319L344.511 46.7535L346.184 47.2892L347.95 49.2537L349.438 51.486Z" fill="white" stroke="black" stroke-linecap="round" stroke-linejoin="round"/>
<path d="M161.77 237.928L161.212 239L158.238 240.339L154.612 239.357L153.497 239.893L152.382 239.268L152.103 238.107L154.705 237.75L157.959 238.375L159.353 237.839L160.468 238.285L161.77 237.928ZM158.609 233.196L160.004 234.446L158.609 234.714L157.122 233.821L158.609 233.196ZM175.433 225.606L172.645 225.249L171.808 224.624L174.039 223.106L177.014 221.766L178.594 222.124L179.059 222.927L178.036 223.909L175.433 225.606ZM168.369 215.337L167.347 216.32L166.789 215.069L168.369 213.819V215.337ZM161.77 237.928L159.353 237.214L157.308 237.66L154.705 237.035L153.125 235.875L154.241 235.249L156.379 235.16L160.097 235.785L161.212 234.982L160.654 234.089L158.516 232.214L160.004 229.803L161.305 228.91L164.279 225.517L165.116 223.731L166.231 218.82L167.161 217.034L168.462 217.48L170.321 216.766L173.481 214.98L174.411 213.462L175.341 212.659L179.059 211.23L181.011 210.873L189.283 210.426L190.956 211.944L193.466 212.48L193.559 216.32L192.908 217.838L191.886 221.231L189.004 221.141L188.447 222.57L189.097 223.463L191.514 223.731L192.258 224.624L191.7 226.945L189.283 228.374L189.004 229.178L189.934 229.981L189.283 230.874L185.1 232.035L182.963 231.321L181.289 231.946L180.639 232.928L183.52 236.589V237.66L182.312 240.161L182.963 241.232L180.918 242.661L180.453 243.375L182.219 244.447L181.661 246.59L180.546 246.5L178.315 246.232L177.664 245.25L178.687 244.089L179.616 241.5L177.2 240.518L175.619 239.357L173.853 239.714L171.437 238.464L170.972 237.035L168.648 237.75L167.626 236.589L166.231 237.482L164.837 236.767L163.536 237.392L163.722 238.196L161.77 237.928ZM178.594 223.999L179.43 223.195L178.966 221.498L177.014 221.231L176.549 220.516L176.921 218.284L174.318 217.927L173.946 215.695L172.552 215.962L170.414 217.302L170.972 218.463L172.459 219.891V220.695L170.507 221.32L170.6 223.642L170.414 225.07L175.433 226.32L178.594 223.999Z" fill="white"/>
<path d="M161.77 237.928L161.212 239L158.238 240.339L154.612 239.357L153.497 239.893L152.382 239.268L152.103 238.107L154.705 237.75L157.959 238.375L159.353 237.839L160.468 238.285L161.77 237.928ZM161.77 237.928L159.353 237.214L157.308 237.66L154.705 237.035L153.125 235.875L154.241 235.249L156.379 235.16L160.097 235.785L161.212 234.982L160.654 234.089L158.516 232.214L160.004 229.803L161.305 228.91L164.279 225.517L165.116 223.731L166.231 218.82L167.161 217.034L168.462 217.48L170.321 216.766L173.481 214.98L174.411 213.462L175.341 212.659L179.059 211.23L181.011 210.873L189.283 210.426L190.956 211.944L193.466 212.48L193.559 216.32L192.908 217.838L191.886 221.231L189.004 221.141L188.447 222.57L189.097 223.463L191.514 223.731L192.258 224.624L191.7 226.945L189.283 228.374L189.004 229.178L189.934 229.981L189.283 230.874L185.1 232.035L182.963 231.321L181.289 231.946L180.639 232.928L183.52 236.589V237.66L182.312 240.161L182.963 241.232L180.918 242.661L180.453 243.375L182.219 244.447L181.661 246.59L180.546 246.5L178.315 246.232L177.664 245.25L178.687 244.089L179.616 241.5L177.2 240.518L175.619 239.357L173.853 239.714L171.437 238.464L170.972 237.035L168.648 237.75L167.626 236.589L166.231 237.482L164.837 236.767L163.536 237.392L163.722 238.196L161.77 237.928ZM158.609 233.196L160.004 234.446L158.609 234.714L157.122 233.821L158.609 233.196ZM175.433 225.606L172.645 225.249L171.808 224.624L174.039 223.106L177.014 221.766L178.594 222.124L179.059 222.927L178.036 223.909L175.433 225.606ZM168.369 215.337L167.347 216.32L166.789 215.069L168.369 213.819V215.337ZM178.594 223.999L179.43 223.195L178.966 221.498L177.014 221.231L176.549 220.516L176.921 218.284L174.318 217.927L173.946 215.695L172.552 215.962L170.414 217.302L170.972 218.463L172.459 219.891V220.695L170.507 221.32L170.6 223.642L170.414 225.07L175.433 226.32L178.594 223.999Z" stroke="black" stroke-linecap="round" stroke-linejoin="round"/>
<path d="M132.211 410.548L131.839 411.441L129.98 411.084V409.744L131.096 408.316L133.606 407.691L134.349 408.851L132.211 410.548ZM152.382 398.404L153.497 398.851L154.705 398.404L156.007 398.761L156.193 399.654L154.148 402.779L153.59 404.03L151.638 405.19L147.92 403.672L147.641 402.244L146.34 401.619L144.76 402.779L143.458 401.887L143.179 400.815L148.106 397.511L149.5 396.708L152.475 395.904L152.939 396.975L152.382 398.404ZM166.045 397.69L165.767 397.868L162.141 396.172L160.654 395.815L160.747 394.565L163.164 394.386L165.116 395.011L166.231 396.618L166.045 397.69ZM94.1014 348.133L94.5661 349.293L98.563 350.454L98.2842 353.312L99.9573 352.954L104.047 354.472L106.092 354.651L108.137 356.526L111.483 356.169L114.458 358.044L117.339 357.687L117.99 358.044H122.358L123.102 355.901L126.82 356.883L129.144 357.776L130.724 358.044L131.747 359.383V361.259L132.397 361.616L135 360.634L137.602 361.705L138.811 362.777L140.763 361.794L145.131 362.866L146.247 362.152L149.779 361.169L152.66 361.705L153.776 363.669L152.103 364.116L151.917 365.366L153.032 366.527L153.125 368.402L150.337 370.902L142.25 375.099L139.554 377.51L133.42 378.849L129.237 380.189L127.192 380.635L123.381 384.028L124.403 384.296L125.519 385.367L125.147 385.903L122.823 386.885H121.987L119.291 390.993L116.874 393.94L115.48 395.279L114.086 397.154L111.111 402.154L111.018 403.583L112.506 408.494L114.551 410.905L116.781 411.887L117.339 412.78L116.596 413.673L114.365 415.191L110.368 417.245L108.695 418.941L108.416 420.549L107.207 421.263L106.743 423.495L105.07 427.424L106.278 428.496L105.07 429.21L99.0278 429.478L95.2168 431.978L93.3578 434.121L91.5917 438.139L89.5468 440.461L88.6173 440.907L87.223 439.836L85.457 439.746L83.6909 440.014L82.7614 440.907L81.3671 441.354L79.9729 440.907L75.6971 440.729L73.5592 441.443L71.7932 440.996L68.8187 440.729L62.3122 441.264L58.5941 444.3H55.4338L52.5523 445.372L50.6004 448.051L50.1356 449.479L49.2061 449.211L48.9272 450.283L46.9753 450.997L44.7444 450.104L42.8854 448.765L41.9559 448.676L40.4687 446.711L39.3533 443.943V442.961L37.959 442.425L37.6802 441.175L37.8661 439.746L36.7507 437.961L32.1031 434.657L28.6639 434.389L25.8754 434.835L24.8529 429.121L25.5966 427.156L28.8498 423.317L30.8018 422.781L31.4525 420.638L29.8723 420.816L27.0838 416.977L27.9203 413.405L30.8947 410.726L31.4525 408.583L30.9877 407.869L29.4075 407.512L27.9203 404.655L27.6415 402.958L26.3402 401.887L25.3177 400.19L26.3402 399.922H30.337L31.2665 399.476L32.8467 396.35V394.654L31.5454 393.493L31.7313 392.6L34.241 390.725L33.8692 389.743L34.241 386.35L33.8692 383.224L33.1256 381.439L34.9846 380.01L36.007 378.581L37.4943 377.331L39.4462 376.349L41.77 374.117L41.4911 373.134L39.7251 372.331L37.959 372.152L37.8661 369.384L37.2154 368.402L32.382 368.313L30.9877 367.866L30.2441 369.116L27.9203 369.92H26.619L24.5741 369.206L21.8785 369.295L19.09 370.277L18.2534 369.116L19.4618 367.42L18.5323 365.812L14.7213 366.705L12.9552 367.509L11.8398 368.491L10.6315 368.402V366.17L13.0482 363.848L11.561 363.669L12.6764 361.973L11.7469 361.08L11.8398 358.758L9.70195 359.562L9.23719 358.491L10.5385 356.526L9.23719 356.348L7.0993 354.115L7.84293 351.347L9.70195 350.454L11.468 349.115L13.8847 349.383L15.4649 349.115L18.8111 347.686L18.4393 346.347L18.8111 345.722L21.7856 344.204L23.6446 344.025L25.4106 343.222L26.619 343.668L27.6415 343.579L28.8498 344.114L30.43 345.543L32.7538 346.079L34.6128 345.632L37.959 345.543L39.5392 345.722L42.5136 345.454L44.1867 345.543L46.8823 344.829L49.0202 345.722L53.11 346.079L55.5267 346.793L62.2192 348.043H64.7289L68.1681 347.329L69.6553 346.883L71.0496 347.15L73.0015 346.615L75.1394 347.508L79.5081 348.668L81.46 347.508L84.6204 348.043L87.6878 349.204L89.3609 349.293L91.7776 349.026L94.1014 348.133Z" fill="white" stroke="black" stroke-linecap="round" stroke-linejoin="round"/>
<path d="M525.208 482.41H525.115H525.022L525.115 482.321L525.208 482.41ZM525.208 482.41H525.301H525.394L525.486 482.5H525.394H525.301H525.208V482.41ZM524.836 482.142H524.743V482.053H524.836V481.964L524.929 482.053V482.142H524.836ZM528.089 481.428L528.275 481.517L528.554 481.785L528.74 482.142L528.833 482.41L529.019 482.589L529.204 482.678H529.019H528.74L528.461 482.589L528.275 482.41H528.089L527.438 482.5L526.881 482.589L526.788 482.678L526.695 482.767H526.416H526.137L526.044 482.678L526.23 482.589H526.323L526.23 482.321H526.044L525.858 482.232V481.874L525.765 481.785L525.486 481.696V481.517L525.579 481.428L525.765 481.339L525.858 481.428L525.951 481.517L526.137 481.428L526.23 481.339L526.323 481.249L526.416 481.16L526.602 481.339L526.788 481.428H526.881L527.067 481.517H527.16L527.438 481.428H527.624L527.717 481.517H527.903H527.996H528.089V481.428ZM524.371 482.41V482.589L524.092 482.678L523.813 482.946V483.125L523.72 483.392V483.66V483.928V484.196V484.285H523.627L523.535 484.375V484.643L523.442 484.732H523.256H522.884L522.698 484.821L522.605 484.91L522.512 485.089L522.419 485.178L522.233 485.268L521.861 485.357L521.49 485.535L521.211 485.625L521.025 485.357L521.118 485.803L520.746 485.982L519.909 486.161L519.723 486.25L519.631 486.339L519.445 486.428H519.259L518.422 486.339L517.493 486.428L517.4 486.518L517.214 486.607L516.656 487.053L516.563 487.321H516.284L516.005 487.411V487.5L515.913 487.411L515.82 487.232L515.913 487.053L516.005 487.143H516.284L516.191 486.786L515.82 486.696L515.634 486.875L515.541 486.964L515.355 486.875V486.964L514.983 486.875L514.704 486.696L514.611 486.607V486.428H514.518H514.425H514.332H514.239L514.146 486.518V486.607H513.961L513.868 486.786H513.682H513.496L513.403 486.875L513.496 487.053L513.31 487.143H512.845L512.287 487.053L511.823 486.875L511.172 486.518L510.893 486.428L510.614 486.339H510.15L509.871 486.25L509.685 486.071L509.127 485.714L509.034 485.625L508.941 485.268V485.178L508.848 485.089L508.476 484.285L508.383 484.196L508.105 484.017L507.919 483.928L507.826 483.839L507.733 483.66V483.482L507.826 483.303L507.547 482.946L507.454 482.767V482.41L507.361 482.232L507.082 481.785L506.896 481.517L506.803 481.16L506.896 480.892H506.989L507.268 480.982L507.64 481.428L507.919 481.517L508.105 481.607H508.662L509.034 481.428L509.313 481.071L509.592 480.714L509.685 480.267L509.778 479.999L509.964 479.91L510.057 479.821V479.731H510.15L510.242 479.821H510.335H510.521L510.614 479.91L510.8 480.089H510.986H511.079L511.265 479.91L511.358 479.731V479.553L511.73 479.642L511.916 479.999L512.009 480.178L512.102 480.357L512.287 480.446L512.659 480.535L512.938 480.624L513.124 480.803L513.31 480.892L513.403 481.071V481.249L513.496 481.339L513.589 481.428H513.682L514.054 481.339L514.146 481.16L514.239 480.982L514.332 480.892L514.425 480.982L514.518 481.071L514.704 481.16H514.89L515.076 481.071L515.262 480.892L515.448 480.714L515.634 480.624L515.913 480.446L516.005 480.267H516.191L516.47 480.357H516.749H517.121L517.214 480.267H517.307L517.4 480.089L517.679 479.91H517.864L518.05 479.999L518.143 480.089H518.329H518.422L518.608 480.267L518.794 480.446L518.98 480.535L519.259 480.624H519.352L519.445 480.535V480.446L519.538 480.267L519.816 479.999H519.909H520.095H520.374H520.56H520.653V480.178L520.746 480.357L520.839 480.446L521.025 480.624L521.211 480.803V480.892L521.304 481.16V481.339V481.607V481.964L521.211 482.232L521.304 482.41L521.397 482.5H521.583H521.768V482.232V481.874L521.861 481.785L521.954 481.696L522.047 481.607L522.14 481.696L522.233 482.053L522.326 482.232L522.419 482.321L522.698 482.232V482.053L522.791 481.964H522.977L523.07 482.053H523.256L523.349 481.964L523.442 482.053H523.535L523.813 482.232H523.999H524.092L524.371 482.41Z" fill="white"/>
<path d="M525.208 482.41H525.115H525.022L525.115 482.321L525.208 482.41ZM525.208 482.41H525.301H525.394L525.486 482.5H525.394H525.301H525.208V482.41ZM524.836 482.142H524.743V482.053H524.836V481.964L524.929 482.053V482.142H524.836ZM528.089 481.428L528.275 481.517L528.554 481.785L528.74 482.142L528.833 482.41L529.019 482.589L529.204 482.678H529.019H528.74L528.461 482.589L528.275 482.41H528.089L527.438 482.5L526.881 482.589L526.788 482.678L526.695 482.767H526.416H526.137L526.044 482.678L526.23 482.589H526.323L526.23 482.321H526.044L525.858 482.232V481.874L525.765 481.785L525.486 481.696V481.517L525.579 481.428L525.765 481.339L525.858 481.428L525.951 481.517L526.137 481.428L526.23 481.339L526.323 481.249L526.416 481.16L526.602 481.339L526.788 481.428H526.881L527.067 481.517H527.16L527.438 481.428H527.624L527.717 481.517H527.903H527.996H528.089V481.428ZM524.371 482.41V482.589L524.092 482.678L523.813 482.946V483.125L523.72 483.392V483.66V483.928V484.196V484.285H523.627L523.535 484.375V484.643L523.442 484.732H523.256H522.884L522.698 484.821L522.605 484.91L522.512 485.089L522.419 485.178L522.233 485.268L521.861 485.357L521.49 485.535L521.211 485.625L521.025 485.357L521.118 485.803L520.746 485.982L519.909 486.161L519.723 486.25L519.631 486.339L519.445 486.428H519.259L518.422 486.339L517.493 486.428L517.4 486.518L517.214 486.607L516.656 487.053L516.563 487.321H516.284L516.005 487.411V487.5L515.913 487.411L515.82 487.232L515.913 487.053L516.005 487.143H516.284L516.191 486.786L515.82 486.696L515.634 486.875L515.541 486.964L515.355 486.875V486.964L514.983 486.875L514.704 486.696L514.611 486.607V486.428H514.518H514.425H514.332H514.239L514.146 486.518V486.607H513.961L513.868 486.786H513.682H513.496L513.403 486.875L513.496 487.053L513.31 487.143H512.845L512.287 487.053L511.823 486.875L511.172 486.518L510.893 486.428L510.614 486.339H510.15L509.871 486.25L509.685 486.071L509.127 485.714L509.034 485.625L508.941 485.268V485.178L508.848 485.089L508.476 484.285L508.383 484.196L508.105 484.017L507.919 483.928L507.826 483.839L507.733 483.66V483.482L507.826 483.303L507.547 482.946L507.454 482.767V482.41L507.361 482.232L507.082 481.785L506.896 481.517L506.803 481.16L506.896 480.892H506.989L507.268 480.982L507.64 481.428L507.919 481.517L508.105 481.607H508.662L509.034 481.428L509.313 481.071L509.592 480.714L509.685 480.267L509.778 479.999L509.964 479.91L510.057 479.821V479.731H510.15L510.242 479.821H510.335H510.521L510.614 479.91L510.8 480.089H510.986H511.079L511.265 479.91L511.358 479.731V479.553L511.73 479.642L511.916 479.999L512.009 480.178L512.102 480.357L512.287 480.446L512.659 480.535L512.938 480.624L513.124 480.803L513.31 480.892L513.403 481.071V481.249L513.496 481.339L513.589 481.428H513.682L514.054 481.339L514.146 481.16L514.239 480.982L514.332 480.892L514.425 480.982L514.518 481.071L514.704 481.16H514.89L515.076 481.071L515.262 480.892L515.448 480.714L515.634 480.624L515.913 480.446L516.005 480.267H516.191L516.47 480.357H516.749H517.121L517.214 480.267H517.307L517.4 480.089L517.679 479.91H517.864L518.05 479.999L518.143 480.089H518.329H518.422L518.608 480.267L518.794 480.446L518.98 480.535L519.259 480.624H519.352L519.445 480.535V480.446L519.538 480.267L519.816 479.999H519.909H520.095H520.374H520.56H520.653V480.178L520.746 480.357L520.839 480.446L521.025 480.624L521.211 480.803V480.892L521.304 481.16V481.339V481.607V481.964L521.211 482.232L521.304 482.41L521.397 482.5H521.583H521.768V482.232V481.874L521.861 481.785L521.954 481.696L522.047 481.607L522.14 481.696L522.233 482.053L522.326 482.232L522.419 482.321L522.698 482.232V482.053L522.791 481.964H522.977L523.07 482.053H523.256L523.349 481.964L523.442 482.053H523.535L523.813 482.232H523.999H524.092L524.371 482.41Z" stroke="black" stroke-linecap="round" stroke-linejoin="round"/>
<path d="M28.1102 435.827L27.0026 436.015L22.8491 438.354H21.6492L19.3417 437.324L15.1882 436.95L13.8037 436.669L12.1423 437.324H10.7578L9.74247 438.26L9.00405 437.979L9.92705 436.015L11.4039 432.178V429.746L11.7731 427.687L11.4962 425.722L10.8501 424.412L11.8654 421.137V419.453L11.0347 417.301L13.6191 417.582L12.05 416.272H10.6655L8.54255 417.114L7.15805 417.208L7.25036 415.898L6.78886 414.213L8.63486 413.652L10.1117 412.061L9.83477 410.564L8.72716 411.593L8.17336 412.903L5.58897 413.558L4.20447 413.091V411.313L4.75827 409.722L5.12747 407.57L5.86586 405.512L5.68127 404.202L7.15805 402.985L8.45027 401.208L12.4192 392.88L11.8654 391.944L13.4345 385.769L14.5421 383.617L15.0959 379.593L14.9113 377.722L14.2652 375.851L13.6191 371.827V370.517L12.7884 368.833L12.8807 367.898L14.1729 366.307L15.2805 365.278L17.0342 364.436L20.8185 363.5L21.7415 365.184L20.5416 366.962L21.3723 368.178L24.1413 367.149L26.818 367.055L28.8486 367.804H30.1408L32.4483 366.962L33.1867 365.652L34.5712 366.12L39.3708 366.213L40.0169 367.243L40.1092 370.143L41.8629 370.33L43.6165 371.172L43.8935 372.202L41.586 374.541L39.6477 375.57L38.1709 376.88L37.1556 378.377L35.3096 379.874L36.048 381.745L36.4172 385.02L36.048 388.576L36.4172 389.605L33.9251 391.57L33.7405 392.506L35.0327 393.722V395.5L33.4636 398.775L32.5406 399.243H28.5717L27.5564 399.523L28.5717 401.301L29.8639 402.424L30.1408 404.202L31.6176 407.196L33.1867 407.57L33.6482 408.319L33.0944 410.564L30.1408 413.371L29.3101 417.114L32.0791 421.137L33.6482 420.95L33.0021 423.196L31.0638 423.757L27.8333 427.781L27.0949 429.839L28.1102 435.827Z" fill="white" stroke="black" stroke-linecap="round" stroke-linejoin="round"/>
<path d="M225.914 356.08L225.635 358.133L226.564 359.651L227.122 365.455L225.449 368.313L225.542 370.991L224.054 374.831L223.311 375.813L219.779 374.027L218.663 373.045L219.593 371.438L217.548 370.634L217.92 369.116L217.734 368.313L216.247 367.866L217.176 366.705V365.991L215.782 365.098L215.503 364.294L216.711 363.312L216.154 362.509L216.247 361.348L217.083 359.651L218.199 358.848L220.801 358.133L221.917 357.151L223.683 357.687L224.24 356.615L224.054 354.204L224.333 353.222L225.542 353.669L225.914 356.08ZM101.452 313.309L101.08 314.559L99.3143 312.416L100.244 311.969L101.452 313.309ZM179.903 263.662L181.855 264.734H183.156L185.015 264.198L186.223 264.823L187.525 264.912L190.778 268.752L192.451 268.127L193.752 268.484L194.031 269.288L195.983 269.377L198.772 268.841L200.631 270.091L205.092 270.806L206.58 271.341L206.673 272.502L203.419 275.895L202.118 280.806L201.189 282.413L200.91 283.753L201.096 285.896L200.538 287.682V289.021L201.56 290.182L200.166 290.807L199.422 292.057L196.913 292.325L196.169 291.611H195.147L193.474 292.861L194.682 293.843L194.124 294.647L190.592 298.218L188.64 299.022L188.175 301.611L185.387 303.576L184.364 306.165L185.108 306.79L184.829 308.13L183.435 309.023V309.915L184.736 310.005L186.874 308.576L186.409 307.415L188.547 306.076L190.313 305.987L192.358 306.254L193.102 308.219L192.637 309.737L194.775 311.791L195.611 313.041L193.195 314.559L193.288 315.987L194.124 316.523L195.704 318.845L197.378 320.273L196.634 322.506L195.519 322.774L193.938 323.934L192.172 323.756L191.429 324.113L192.823 326.881L195.797 328.131L196.262 329.649L195.519 330.274L194.217 332.506L194.868 333.667L194.961 334.917L195.797 335.721L200.538 337.864L203.605 337.328L203.884 339.114L201.932 341.436L202.118 342.775L201.56 343.043L200.817 343.311L198.586 344.293L194.961 347.329L193.288 348.222L192.637 349.829L190.778 351.079L188.547 351.526L186.409 352.419L185.387 352.061H182.784L181.204 350.99L178.044 350.276L177.021 348.668L174.698 348.579L173.954 347.24L172.188 347.508L170.794 348.133L168.935 348.043L163.45 346.436L162.149 345.186L160.569 345.632L159.082 347.061L153.04 350.722L150.623 354.562L150.53 355.633L151.181 359.115L152.668 361.348L149.787 360.812L146.255 361.794L145.139 362.509L140.77 361.437L138.818 362.419L137.61 361.348L135.007 360.276V358.937L132.591 358.401L131.754 359.026L130.732 357.687L129.152 357.419L126.828 356.526L123.11 355.544L122.366 357.687H117.997L117.347 357.33L114.465 357.687L111.491 355.812L108.145 356.169L106.1 354.294L104.055 354.115L99.965 352.597L98.2919 352.954L98.5707 350.097L94.5738 348.936L94.1091 347.775L95.9681 347.329L97.7342 345.632L99.3143 339.293L100.523 331.881L101.452 330.453L102.568 330.096L101.638 329.024L100.616 330.363L101.266 323.577L101.731 321.077L102.568 318.398L105.449 320.541L106.193 321.434L107.029 324.47L107.587 324.559L106.565 320.452L104.891 318.398L101.545 316.345L101.08 315.184L102.754 314.648L102.289 313.041L101.824 307.772L99.0355 307.237L94.5738 304.915L92.9937 302.594L91.5065 300.897L91.1347 299.379L91.9712 297.772L91.2276 296.79L89.9263 296.075L90.9488 294.647L88.1602 294.468L86.4871 294.021L86.2083 293.039L87.4166 291.789L85.9294 291.075L83.5127 291.253L83.3268 289.735L81.2819 290.003L80.1664 289.735L79.144 288.753L77.9356 288.932L75.8907 288.575L75.1471 287.95L70.6855 286.789L68.8265 286.7L67.0604 287.235L66.0379 286.967L64.8295 285.003L61.9481 284.021L62.5058 283.396L65.3873 282.86L65.945 282.235L63.9 281.431L63.7142 280.36L65.2013 280.628L65.2943 279.556L61.5763 279.645L61.2045 278.485L61.6692 277.235L63.8071 276.163L69.1983 274.913L71.522 275.092L73.1022 274.913L75.8907 273.484L78.5863 273.127L81.096 273.841L83.4197 276.342L84.5352 277.235L87.4166 275.717L91.5065 275.806L92.343 276.61L93.4584 275.092L94.388 275.984L98.7566 275.806L97.3624 273.574L97.1765 268.216L95.9681 266.698L94.0161 262.859L94.202 261.608L97.1765 261.876L99.6861 261.341L100.895 261.698L101.173 264.198L102.196 265.627H104.241L106.379 266.073L109.167 266.162L113.164 266.877L114.837 266.43L118.09 264.644L116.417 264.019L116.231 263.394L117.068 261.43L121.901 259.198L125.341 258.572L128.873 257.412L130.732 256.162L131.847 254.554L132.312 253.394L132.591 247.322L133.52 245.357L136.216 243.929L142.165 242.946L143.001 242.5L143.838 244.464V245.536L146.533 247.679L149.508 246.786L150.995 248.393L151.46 250.179L155.364 251.161L155.921 252.947L156.758 252.679L160.104 253.036L161.591 254.019L161.22 255.447L161.87 256.072L161.22 257.322L161.684 257.858L163.822 258.126L165.867 257.858L167.076 257.322L167.54 256.072L169.306 255.537L168.563 257.947L169.12 258.483L169.492 260.269L171.072 260.358L174.14 261.698L176.742 264.019L179.903 263.662Z" fill="white" stroke="black" stroke-linecap="round" stroke-linejoin="round"/>
</svg>
