<svg width="44" height="51" viewBox="0 0 44 51" fill="none" xmlns="http://www.w3.org/2000/svg">
<path d="M40.3333 12.75V38.25C40.3333 39.4188 39.9743 40.4193 39.2562 41.2516C38.5382 42.0839 37.675 42.5 36.6666 42.5H7.33329C6.32496 42.5 5.46176 42.0839 4.74371 41.2516C4.02565 40.4193 3.66663 39.4188 3.66663 38.25V12.75C3.66663 11.5813 4.02565 10.5807 4.74371 9.74844C5.46176 8.91615 6.32496 8.5 7.33329 8.5H36.6666C37.675 8.5 38.5382 8.91615 39.2562 9.74844C39.9743 10.5807 40.3333 11.5813 40.3333 12.75ZM7.33329 17H36.6666V12.75H7.33329V17ZM7.33329 25.5V38.25H36.6666V25.5H7.33329Z" fill="#EAC452"/>
</svg>
