<svg width="47" height="50" viewBox="0 0 47 50" fill="none" xmlns="http://www.w3.org/2000/svg">
<path d="M21.2586 35.4167H25.1237V22.9167H21.2586V35.4167ZM24.5681 18.1511C24.9385 17.7518 25.1237 17.257 25.1237 16.6667C25.1237 16.0764 24.9385 15.5816 24.5681 15.1823C24.1977 14.783 23.7387 14.5834 23.1911 14.5834C22.6436 14.5834 22.1846 14.783 21.8142 15.1823C21.4438 15.5816 21.2586 16.0764 21.2586 16.6667C21.2586 17.257 21.4438 17.7518 21.8142 18.1511C22.1846 18.5504 22.6436 18.75 23.1911 18.75C23.7387 18.75 24.1977 18.5504 24.5681 18.1511ZM23.1911 45.8334C20.5177 45.8334 18.0054 45.2865 15.654 44.1927C13.3027 43.099 11.2574 41.6146 9.51806 39.7396C7.77873 37.8646 6.40176 35.6597 5.38715 33.125C4.37254 30.5903 3.86523 27.882 3.86523 25C3.86523 22.1181 4.37254 19.4097 5.38715 16.875C6.40176 14.3403 7.77873 12.1354 9.51806 10.2604C11.2574 8.38544 13.3027 6.90106 15.654 5.80731C18.0054 4.71356 20.5177 4.16669 23.1911 4.16669C25.8646 4.16669 28.3769 4.71356 30.7283 5.80731C33.0796 6.90106 35.1249 8.38544 36.8642 10.2604C38.6036 12.1354 39.9805 14.3403 40.9951 16.875C42.0098 19.4097 42.5171 22.1181 42.5171 25C42.5171 27.882 42.0098 30.5903 40.9951 33.125C39.9805 35.6597 38.6036 37.8646 36.8642 39.7396C35.1249 41.6146 33.0796 43.099 30.7283 44.1927C28.3769 45.2865 25.8646 45.8334 23.1911 45.8334ZM23.1911 41.6667C27.5073 41.6667 31.1631 40.0521 34.1586 36.8229C37.1541 33.5938 38.6519 29.6528 38.6519 25C38.6519 20.3472 37.1541 16.4063 34.1586 13.1771C31.1631 9.94794 27.5073 8.33335 23.1911 8.33335C18.875 8.33335 15.2192 9.94794 12.2237 13.1771C9.22818 16.4063 7.73042 20.3472 7.73042 25C7.73042 29.6528 9.22818 33.5938 12.2237 36.8229C15.2192 40.0521 18.875 41.6667 23.1911 41.6667Z" fill="#1E3A8A"/>
</svg>
