<svg width="44" height="51" viewBox="0 0 44 51" fill="none" xmlns="http://www.w3.org/2000/svg">
<path d="M15.4 44.625C12.6194 44.625 10.2743 43.5182 8.36458 41.3047C6.45486 39.0911 5.5 36.3729 5.5 33.15C5.5 31.8042 5.69861 30.4938 6.09583 29.2188C6.49306 27.9438 7.05833 26.7927 7.79167 25.7656L14.3 16.6813L9.85417 6.375H34.1458L29.7 16.6813L36.2083 25.7656C36.9417 26.7927 37.5069 27.9438 37.9042 29.2188C38.3014 30.4938 38.5 31.8042 38.5 33.15C38.5 36.3729 37.5375 39.0911 35.6125 41.3047C33.6875 43.5182 31.35 44.625 28.6 44.625H15.4ZM22 34C20.9917 34 20.1285 33.5839 19.4104 32.7516C18.6924 31.9193 18.3333 30.9188 18.3333 29.75C18.3333 28.5813 18.6924 27.5807 19.4104 26.7484C20.1285 25.9161 20.9917 25.5 22 25.5C23.0083 25.5 23.8715 25.9161 24.5896 26.7484C25.3076 27.5807 25.6667 28.5813 25.6667 29.75C25.6667 30.9188 25.3076 31.9193 24.5896 32.7516C23.8715 33.5839 23.0083 34 22 34ZM17.6458 14.875H26.3542L28.1875 10.625H15.8125L17.6458 14.875ZM15.4 40.375H28.6C30.3417 40.375 31.816 39.6755 33.0229 38.2766C34.2299 36.8776 34.8333 35.1688 34.8333 33.15C34.8333 32.3 34.7035 31.4766 34.4438 30.6797C34.184 29.8828 33.825 29.1656 33.3667 28.5281L26.6292 19.125H17.4167L10.6333 28.475C10.175 29.1125 9.81597 29.8385 9.55625 30.6531C9.29653 31.4677 9.16667 32.3 9.16667 33.15C9.16667 35.1688 9.77014 36.8776 10.9771 38.2766C12.184 39.6755 13.6583 40.375 15.4 40.375Z" fill="#6366F1"/>
</svg>
