<svg width="30" height="33" viewBox="0 0 30 33" fill="none" xmlns="http://www.w3.org/2000/svg">
<path d="M6.5625 14.2917C4.75 14.2917 3.20312 13.5941 1.92188 12.199C0.640625 10.8038 0 9.11944 0 7.14583C0 5.17222 0.640625 3.48785 1.92188 2.09271C3.20312 0.697569 4.75 0 6.5625 0C8.375 0 9.92188 0.697569 11.2031 2.09271C12.4844 3.48785 13.125 5.17222 13.125 7.14583C13.125 9.11944 12.4844 10.8038 11.2031 12.199C9.92188 13.5941 8.375 14.2917 6.5625 14.2917ZM6.5625 10.2083C7.34375 10.2083 8.00781 9.91059 8.55469 9.3151C9.10156 8.71962 9.375 7.99653 9.375 7.14583C9.375 6.29514 9.10156 5.57205 8.55469 4.97656C8.00781 4.38108 7.34375 4.08333 6.5625 4.08333C5.78125 4.08333 5.11719 4.38108 4.57031 4.97656C4.02344 5.57205 3.75 6.29514 3.75 7.14583C3.75 7.99653 4.02344 8.71962 4.57031 9.3151C5.11719 9.91059 5.78125 10.2083 6.5625 10.2083ZM23.4375 32.6667C21.625 32.6667 20.0781 31.9691 18.7969 30.574C17.5156 29.1788 16.875 27.4944 16.875 25.5208C16.875 23.5472 17.5156 21.8628 18.7969 20.4677C20.0781 19.0726 21.625 18.375 23.4375 18.375C25.25 18.375 26.7969 19.0726 28.0781 20.4677C29.3594 21.8628 30 23.5472 30 25.5208C30 27.4944 29.3594 29.1788 28.0781 30.574C26.7969 31.9691 25.25 32.6667 23.4375 32.6667ZM25.4297 27.6901C25.9766 27.0946 26.25 26.3715 26.25 25.5208C26.25 24.6701 25.9766 23.947 25.4297 23.3516C24.8828 22.7561 24.2188 22.4583 23.4375 22.4583C22.6562 22.4583 21.9922 22.7561 21.4453 23.3516C20.8984 23.947 20.625 24.6701 20.625 25.5208C20.625 26.3715 20.8984 27.0946 21.4453 27.6901C21.9922 28.2856 22.6562 28.5833 23.4375 28.5833C24.2188 28.5833 24.8828 28.2856 25.4297 27.6901ZM2.625 32.6667L0 29.8083L27.375 0L30 2.85833L2.625 32.6667Z" fill="#323A4B" fill-opacity="0.67"/>
</svg>
