<svg width="47" height="48" viewBox="0 0 47 48" fill="none" xmlns="http://www.w3.org/2000/svg">
<path d="M23.1956 33.75C24.4714 33.75 25.5635 33.2604 26.472 32.2812C27.3805 31.3021 27.8348 30.125 27.8348 28.75C27.8348 27.375 27.3805 26.1979 26.472 25.2188C25.5635 24.2396 24.4714 23.75 23.1956 23.75C21.9199 23.75 20.8278 24.2396 19.9193 25.2188C19.0108 26.1979 18.5565 27.375 18.5565 28.75C18.5565 30.125 19.0108 31.3021 19.9193 32.2812C20.8278 33.2604 21.9199 33.75 23.1956 33.75ZM4.63913 47.5C3.36337 47.5 2.27124 47.0104 1.36274 46.0312C0.454248 45.0521 0 43.875 0 42.5V15C0 13.625 0.454248 12.4479 1.36274 11.4688C2.27124 10.4896 3.36337 10 4.63913 10H13.9174V5C13.9174 3.625 14.3716 2.44792 15.2801 1.46875C16.1886 0.489583 17.2808 0 18.5565 0H27.8348C29.1105 0 30.2027 0.489583 31.1112 1.46875C32.0197 2.44792 32.4739 3.625 32.4739 5V10H41.7522C43.0279 10 44.1201 10.4896 45.0286 11.4688C45.937 12.4479 46.3913 13.625 46.3913 15V42.5C46.3913 43.875 45.937 45.0521 45.0286 46.0312C44.1201 47.0104 43.0279 47.5 41.7522 47.5H4.63913ZM4.63913 42.5H41.7522V15H4.63913V42.5ZM18.5565 10H27.8348V5H18.5565V10Z" fill="white"/>
</svg>
