<svg width="15" height="15" viewBox="0 0 15 15" fill="none" xmlns="http://www.w3.org/2000/svg">
<path d="M0 15V13.125H2.57812L2.20312 12.7969C1.4375 12.0312 0.879063 11.1994 0.527813 10.3012C0.176563 9.40312 0.000625 8.485 0 7.54688C0 5.8125 0.519688 4.26969 1.55906 2.91844C2.59844 1.56719 3.95375 0.6725 5.625 0.234375V2.20312C4.5 2.60938 3.59375 3.30094 2.90625 4.27781C2.21875 5.25469 1.875 6.34438 1.875 7.54688C1.875 8.25 2.00781 8.93375 2.27344 9.59812C2.53906 10.2625 2.95312 10.8756 3.51562 11.4375L3.75 11.6719V9.375H5.625V15H0ZM9.375 14.7656V12.7969C10.5 12.3906 11.4062 11.6994 12.0937 10.7231C12.7812 9.74687 13.125 8.65687 13.125 7.45312C13.125 6.75 12.9922 6.06656 12.7266 5.40281C12.4609 4.73906 12.0469 4.12563 11.4844 3.5625L11.25 3.32813V5.625H9.375V0H15V1.875H12.4219L12.7969 2.20312C13.5625 2.96875 14.1212 3.80094 14.4731 4.69969C14.825 5.59844 15.0006 6.51625 15 7.45312C15 9.1875 14.4806 10.7306 13.4419 12.0825C12.4031 13.4344 11.0475 14.3287 9.375 14.7656Z" fill="#4C8AD8"/>
</svg>
