<svg width="59" height="50" viewBox="0 0 59 50" fill="none" xmlns="http://www.w3.org/2000/svg">
<path d="M24.9148 47.8676C23.7371 46.4461 23.1482 44.7059 23.1482 42.6471C23.1482 40.5882 23.7371 38.848 24.9148 37.4265C26.0925 36.0049 27.5342 35.2941 29.2399 35.2941C30.9455 35.2941 32.3872 36.0049 33.5649 37.4265C34.7426 38.848 35.3315 40.5882 35.3315 42.6471C35.3315 44.7059 34.7426 46.4461 33.5649 47.8676C32.3872 49.2892 30.9455 50 29.2399 50C27.5342 50 26.0925 49.2892 24.9148 47.8676ZM15.4728 33.3824L10.3558 27.0588C12.7518 24.1667 15.5641 21.875 18.7927 20.1838C22.0213 18.4926 25.5037 17.6471 29.2399 17.6471C32.9761 17.6471 36.4585 18.5049 39.687 20.2206C42.9156 21.9363 45.7279 24.2647 48.1239 27.2059L43.007 33.3824C41.2201 31.2255 39.1489 29.5343 36.7935 28.3088C34.4381 27.0833 31.9202 26.4706 29.2399 26.4706C26.5595 26.4706 24.0417 27.0833 21.6862 28.3088C19.3308 29.5343 17.2596 31.2255 15.4728 33.3824ZM5.11698 20.8824L0 14.7059C3.73621 10.098 8.10188 6.4951 13.097 3.89706C18.0922 1.29902 23.4731 0 29.2399 0C35.0066 0 40.3876 1.29902 45.3827 3.89706C50.3779 6.4951 54.7435 10.098 58.4797 14.7059L53.3628 20.8824C50.2357 17.1078 46.6112 14.1544 42.4892 12.0221C38.3672 9.88971 33.9507 8.82353 29.2399 8.82353C24.529 8.82353 20.1126 9.88971 15.9906 12.0221C11.8685 14.1544 8.24402 17.1078 5.11698 20.8824Z" fill="white"/>
</svg>
